<?xml version="1.0" encoding="utf-8" ?>
<svg baseProfile="full" height="100%" version="1.1" width="100%" xmlns="http://www.w3.org/2000/svg" xmlns:ev="http://www.w3.org/2001/xml-events" xmlns:xlink="http://www.w3.org/1999/xlink"><defs /><path d="M 373.0,876.5 L 372.5,876.0 L 372.0,875.5 L 371.0,875.5 L 370.5,875.0 L 370.0,874.5 L 369.5,874.0 L 369.0,873.5 L 368.0,873.5 L 367.5,873.0 L 367.0,872.5 L 366.0,872.5 L 365.5,872.0 L 365.0,871.5 L 364.5,871.0 L 364.0,870.5 L 363.0,870.5 L 362.5,870.0 L 362.0,869.5 L 361.0,869.5 L 360.5,869.0 L 360.0,868.5 L 359.5,868.0 L 359.0,867.5 L 358.0,867.5 L 357.5,867.0 L 357.0,866.5 L 356.0,866.5 L 355.5,866.0 L 355.0,865.5 L 354.5,865.0 L 354.0,864.5 L 353.0,864.5 L 352.5,864.0 L 352.0,863.5 L 351.0,863.5 L 350.5,863.0 L 350.0,862.5 L 349.0,862.5 L 348.5,862.0 L 348.0,861.5 L 347.5,861.0 L 347.0,860.5 L 346.0,860.5 L 345.5,860.0 L 345.0,859.5 L 344.0,859.5 L 343.5,859.0 L 343.0,858.5 L 342.5,858.0 L 342.0,857.5 L 341.0,857.5 L 340.5,857.0 L 340.0,856.5 L 339.5,856.0 L 339.0,855.5 L 338.0,855.5 L 337.5,855.0 L 337.0,854.5 L 336.0,854.5 L 335.5,854.0 L 335.0,853.5 L 334.0,853.5 L 333.5,853.0 L 333.0,852.5 L 332.5,852.0 L 332.0,851.5 L 331.0,851.5 L 330.5,851.0 L 330.0,850.5 L 329.0,850.5 L 328.5,850.0 L 328.0,849.5 L 327.5,849.0 L 327.0,848.5 L 326.0,848.5 L 325.5,848.0 L 325.0,847.5 L 324.0,847.5 L 323.5,847.0 L 323.0,846.5 L 322.5,846.0 L 322.0,845.5 L 321.0,845.5 L 320.5,845.0 L 320.0,844.5 L 319.0,844.5 L 318.5,844.0 L 318.0,843.5 L 317.5,843.0 L 317.0,842.5 L 316.0,842.5 L 315.5,842.0 L 315.0,841.5 L 314.0,841.5 L 313.5,841.0 L 313.0,840.5 L 312.5,840.0 L 312.0,839.5 L 311.0,839.5 L 310.5,839.0 L 310.0,838.5 L 309.0,838.5 L 308.5,838.0 L 308.0,837.5 L 307.5,837.0 L 307.0,836.5 L 306.0,836.5 L 305.5,836.0 L 305.0,835.5 L 304.0,835.5 L 303.5,835.0 L 303.0,834.5 L 302.5,834.0 L 302.0,833.5 L 301.0,833.5 L 300.5,833.0 L 300.0,832.5 L 299.0,832.5 L 298.5,832.0 L 298.0,831.5 L 297.5,831.0 L 297.0,830.5 L 296.0,830.5 L 295.5,830.0 L 295.0,829.5 L 294.0,829.5 L 293.5,829.0 L 293.0,828.5 L 292.0,828.5 L 291.5,828.0 L 291.0,827.5 L 290.5,827.0 L 290.0,826.5 L 289.0,826.5 L 288.5,826.0 L 288.0,825.5 L 287.0,825.5 L 286.5,825.0 L 286.0,824.5 L 285.5,824.0 L 285.0,823.5 L 284.0,823.5 L 283.5,823.0 L 283.0,822.5 L 282.5,822.0 L 282.0,821.5 L 281.0,821.5 L 280.5,821.0 L 280.0,820.5 L 279.5,820.0 L 279.0,819.5 L 278.5,819.0 L 278.0,818.5 L 277.0,818.5 L 276.5,818.0 L 276.0,817.5 L 275.5,817.0 L 275.0,816.5 L 274.5,816.0 L 274.0,815.5 L 273.5,815.0 L 273.0,814.5 L 272.5,814.0 L 272.0,813.5 L 271.5,813.0 L 271.0,812.5 L 270.5,812.0 L 270.0,811.5 L 269.5,811.0 L 269.0,810.5 L 268.5,810.0 L 268.5,809.0 L 268.0,808.5 L 267.5,808.0 L 267.0,807.5 L 266.5,807.0 L 266.0,806.5 L 265.5,806.0 L 265.5,805.0 L 265.0,804.5 L 264.5,804.0 L 264.0,803.5 L 263.5,803.0 L 263.5,802.0 L 263.0,801.5 L 262.5,801.0 L 262.5,800.0 L 262.0,799.5 L 261.5,799.0 L 261.5,798.0 L 261.0,797.5 L 260.5,797.0 L 260.5,796.0 L 260.0,795.5 L 259.5,795.0 L 259.5,794.0 L 259.0,793.5 L 258.5,793.0 L 258.5,792.0 L 258.5,791.0 L 258.0,790.5 L 257.5,790.0 L 257.5,789.0 L 257.5,788.0 L 257.0,787.5 L 256.5,787.0 L 256.5,786.0 L 256.5,785.0 L 256.5,784.0 L 256.0,783.5 L 255.5,783.0 L 255.5,782.0 L 255.5,781.0 L 255.5,780.0 L 255.5,779.0 L 255.0,778.5 L 254.5,778.0 L 254.5,777.0 L 254.5,776.0 L 254.5,775.0 L 254.5,774.0 L 254.5,773.0 L 254.5,772.0 L 254.5,771.0 L 254.5,770.0 L 254.5,769.0 L 254.5,768.0 L 254.5,767.0 L 254.5,766.0 L 254.5,765.0 L 254.5,764.0 L 254.5,763.0 L 254.5,762.0 L 254.5,761.0 L 254.5,760.0 L 254.5,759.0 L 254.5,758.0 L 254.5,757.0 L 254.5,756.0 L 254.5,755.0 L 254.5,754.0 L 254.5,753.0 L 254.5,752.0 L 254.5,751.0 L 254.5,750.0 L 254.5,749.0 L 254.5,748.0 L 254.5,747.0 L 254.5,746.0 L 254.5,745.0 L 254.5,744.0 L 254.5,743.0 L 254.5,742.0 L 254.5,741.0 L 254.5,740.0 L 254.5,739.0 L 254.5,738.0 L 254.5,737.0 L 254.5,736.0 L 254.5,735.0 L 254.5,734.0 L 254.5,733.0 L 254.5,732.0 L 254.5,731.0 L 254.5,730.0 L 254.5,729.0 L 254.5,728.0 L 254.5,727.0 L 254.5,726.0 L 254.5,725.0 L 254.5,724.0 L 254.5,723.0 L 254.5,722.0 L 254.5,721.0 L 254.5,720.0 L 254.5,719.0 L 254.5,718.0 L 254.5,717.0 L 254.5,716.0 L 254.5,715.0 L 254.5,714.0 L 254.5,713.0 L 254.5,712.0 L 254.5,711.0 L 254.5,710.0 L 254.5,709.0 L 254.5,708.0 L 254.5,707.0 L 254.5,706.0 L 254.5,705.0 L 254.5,704.0 L 254.5,703.0 L 254.5,702.0 L 254.5,701.0 L 254.5,700.0 L 254.5,699.0 L 254.5,698.0 L 254.5,697.0 L 254.5,696.0 L 254.5,695.0 L 254.5,694.0 L 254.5,693.0 L 254.5,692.0 L 254.5,691.0 L 254.5,690.0 L 254.5,689.0 L 254.5,688.0 L 254.5,687.0 L 254.5,686.0 L 254.5,685.0 L 254.5,684.0 L 254.5,683.0 L 254.5,682.0 L 254.5,681.0 L 254.5,680.0 L 254.5,679.0 L 254.5,678.0 L 254.5,677.0 L 254.5,676.0 L 254.5,675.0 L 254.5,674.0 L 254.5,673.0 L 254.5,672.0 L 254.5,671.0 L 254.5,670.0 L 254.5,669.0 L 254.5,668.0 L 254.5,667.0 L 254.5,666.0 L 254.5,665.0 L 254.5,664.0 L 254.5,663.0 L 254.5,662.0 L 254.5,661.0 L 254.5,660.0 L 254.5,659.0 L 254.5,658.0 L 254.5,657.0 L 254.5,656.0 L 254.5,655.0 L 254.5,654.0 L 254.5,653.0 L 254.5,652.0 L 254.5,651.0 L 254.5,650.0 L 254.5,649.0 L 254.5,648.0 L 254.5,647.0 L 254.5,646.0 L 254.5,645.0 L 254.5,644.0 L 254.5,643.0 L 254.5,642.0 L 254.5,641.0 L 254.5,640.0 L 254.5,639.0 L 254.5,638.0 L 254.5,637.0 L 254.5,636.0 L 254.5,635.0 L 254.5,634.0 L 254.5,633.0 L 254.5,632.0 L 254.5,631.0 L 254.5,630.0 L 254.5,629.0 L 254.5,628.0 L 254.5,627.0 L 254.5,626.0 L 254.5,625.0 L 254.5,624.0 L 254.5,623.0 L 254.5,622.0 L 254.5,621.0 L 254.5,620.0 L 254.5,619.0 L 254.5,618.0 L 254.5,617.0 L 254.5,616.0 L 254.5,615.0 L 254.5,614.0 L 254.5,613.0 L 254.5,612.0 L 254.5,611.0 L 254.5,610.0 L 254.5,609.0 L 254.5,608.0 L 254.5,607.0 L 254.5,606.0 L 255.0,605.5 L 255.5,605.0 L 255.5,604.0 L 255.5,603.0 L 255.5,602.0 L 255.5,601.0 L 256.0,600.5 L 256.5,600.0 L 256.5,599.0 L 256.5,598.0 L 256.5,597.0 L 257.0,596.5 L 257.5,596.0 L 257.5,595.0 L 257.5,594.0 L 258.0,593.5 L 258.5,593.0 L 258.5,592.0 L 258.5,591.0 L 259.0,590.5 L 259.5,590.0 L 259.5,589.0 L 259.5,588.0 L 260.0,587.5 L 260.5,587.0 L 260.5,586.0 L 261.0,585.5 L 261.5,585.0 L 261.5,584.0 L 262.0,583.5 L 262.5,583.0 L 262.5,582.0 L 263.0,581.5 L 263.5,581.0 L 264.0,580.5 L 264.5,580.0 L 264.5,579.0 L 265.0,578.5 L 265.5,578.0 L 266.0,577.5 L 266.5,577.0 L 266.5,576.0 L 267.0,575.5 L 267.5,575.0 L 268.0,574.5 L 268.5,574.0 L 269.0,573.5 L 269.5,573.0 L 269.5,572.0 L 270.0,571.5 L 270.5,571.0 L 271.0,570.5 L 271.5,570.0 L 272.0,569.5 L 272.5,569.0 L 273.0,568.5 L 273.5,568.0 L 274.0,567.5 L 274.5,567.0 L 275.0,566.5 L 275.5,566.0 L 276.0,565.5 L 276.5,565.0 L 277.0,564.5 L 277.5,564.0 L 278.0,563.5 L 278.5,563.0 L 279.0,562.5 L 280.0,562.5 L 280.5,562.0 L 281.0,561.5 L 281.5,561.0 L 282.0,560.5 L 283.0,560.5 L 283.5,560.0 L 284.0,559.5 L 284.5,559.0 L 285.0,558.5 L 286.0,558.5 L 286.5,558.0 L 287.0,557.5 L 288.0,557.5 L 288.5,557.0 L 289.0,556.5 L 289.5,556.0 L 290.0,555.5 L 291.0,555.5 L 291.5,555.0 L 292.0,554.5 L 293.0,554.5 L 293.5,554.0 L 294.0,553.5 L 294.5,553.0 L 295.0,552.5 L 296.0,552.5 L 296.5,552.0 L 297.0,551.5 L 298.0,551.5 L 298.5,551.0 L 299.0,550.5 L 299.5,550.0 L 300.0,549.5 L 301.0,549.5 L 301.5,549.0 L 302.0,548.5 L 303.0,548.5 L 303.5,548.0 L 304.0,547.5 L 305.0,547.5 L 305.5,547.0 L 306.0,546.5 L 306.5,546.0 L 307.0,545.5 L 308.0,545.5 L 308.5,545.0 L 309.0,544.5 L 310.0,544.5 L 310.5,544.0 L 311.0,543.5 L 311.5,543.0 L 312.0,542.5 L 313.0,542.5 L 313.5,542.0 L 314.0,541.5 L 315.0,541.5 L 315.5,541.0 L 316.0,540.5 L 316.5,540.0 L 317.0,539.5 L 318.0,539.5 L 318.5,539.0 L 319.0,538.5 L 320.0,538.5 L 320.5,538.0 L 321.0,537.5 L 321.5,537.0 L 322.0,536.5 L 323.0,536.5 L 323.5,536.0 L 324.0,535.5 L 325.0,535.5 L 325.5,535.0 L 326.0,534.5 L 326.5,534.0 L 327.0,533.5 L 328.0,533.5 L 328.5,533.0 L 329.0,532.5 L 330.0,532.5 L 330.5,532.0 L 331.0,531.5 L 331.5,531.0 L 332.0,530.5 L 333.0,530.5 L 333.5,530.0 L 334.0,529.5 L 335.0,529.5 L 335.5,529.0 L 336.0,528.5 L 336.5,528.0 L 337.0,527.5 L 338.0,527.5 L 338.5,527.0 L 339.0,526.5 L 340.0,526.5 L 340.5,526.0 L 341.0,525.5 L 341.5,525.0 L 342.0,524.5 L 343.0,524.5 L 343.5,524.0 L 344.0,523.5 L 345.0,523.5 L 345.5,523.0 L 346.0,522.5 L 346.5,522.0 L 347.0,521.5 L 348.0,521.5 L 348.5,521.0 L 349.0,520.5 L 350.0,520.5 L 350.5,520.0 L 351.0,519.5 L 351.5,519.0 L 352.0,518.5 L 353.0,518.5 L 353.5,518.0 L 354.0,517.5 L 355.0,517.5 L 355.5,517.0 L 356.0,516.5 L 356.5,516.0 L 357.0,515.5 L 358.0,515.5 L 358.5,515.0 L 359.0,514.5 L 360.0,514.5 L 360.5,514.0 L 361.0,513.5 L 361.5,513.0 L 362.0,512.5 L 363.0,512.5 L 363.5,512.0 L 364.0,511.5 L 365.0,511.5 L 365.5,511.0 L 366.0,510.5 L 366.5,510.0 L 367.0,509.5 L 368.0,509.5 L 368.5,509.0 L 369.0,508.5 L 369.5,508.0 L 370.0,507.5 L 371.0,507.5 L 371.5,507.0 L 372.0,506.5 L 373.0,506.5 L 373.5,506.0 L 374.0,505.5 L 374.5,505.0 L 375.0,504.5 L 376.0,504.5 L 376.5,504.0 L 377.0,503.5 L 378.0,503.5 L 378.5,503.0 L 379.0,502.5 L 379.5,502.0 L 380.0,501.5 L 381.0,501.5 L 381.5,501.0 L 382.0,500.5 L 383.0,500.5 L 383.5,500.0 L 384.0,499.5 L 384.5,499.0 L 385.0,498.5 L 386.0,498.5 L 386.5,498.0 L 387.0,497.5 L 388.0,497.5 L 388.5,497.0 L 389.0,496.5 L 389.5,496.0 L 390.0,495.5 L 391.0,495.5 L 391.5,495.0 L 392.0,494.5 L 393.0,494.5 L 393.5,494.0 L 394.0,493.5 L 394.5,493.0 L 395.0,492.5 L 396.0,492.5 L 396.5,492.0 L 397.0,491.5 L 398.0,491.5 L 398.5,491.0 L 399.0,490.5 L 400.0,490.5 L 400.5,490.0 L 401.0,489.5 L 401.5,489.0 L 402.0,488.5 L 403.0,488.5 L 403.5,488.0 L 404.0,487.5 L 404.5,487.0 L 405.0,486.5 L 406.0,486.5 L 406.5,486.0 L 407.0,485.5 L 408.0,485.5 L 408.5,485.0 L 409.0,484.5 L 409.5,484.0 L 410.0,483.5 L 411.0,483.5 L 411.5,483.0 L 412.0,482.5 L 413.0,482.5 L 413.5,482.0 L 414.0,481.5 L 414.5,481.0 L 415.0,480.5 L 416.0,480.5 L 416.5,480.0 L 417.0,479.5 L 418.0,479.5 L 418.5,479.0 L 419.0,478.5 L 419.5,478.0 L 420.0,477.5 L 421.0,477.5 L 421.5,477.0 L 422.0,476.5 L 423.0,476.5 L 423.5,476.0 L 424.0,475.5 L 424.5,475.0 L 425.0,474.5 L 426.0,474.5 L 426.5,474.0 L 427.0,473.5 L 428.0,473.5 L 428.5,473.0 L 429.0,472.5 L 429.5,472.0 L 430.0,471.5 L 431.0,471.5 L 431.5,471.0 L 432.0,470.5 L 433.0,470.5 L 433.5,470.0 L 434.0,469.5 L 434.5,469.0 L 435.0,468.5 L 436.0,468.5 L 436.5,468.0 L 437.0,467.5 L 438.0,467.5 L 438.5,467.0 L 439.0,466.5 L 439.5,466.0 L 440.0,465.5 L 441.0,465.5 L 441.5,465.0 L 442.0,464.5 L 443.0,464.5 L 443.5,464.0 L 444.0,463.5 L 445.0,463.5 L 445.5,463.0 L 446.0,462.5 L 446.5,462.0 L 447.0,461.5 L 448.0,461.5 L 448.5,461.0 L 449.0,460.5 L 449.5,460.0 L 450.0,459.5 L 451.0,459.5 L 451.5,459.0 L 452.0,458.5 L 453.0,458.5 L 453.5,458.0 L 454.0,457.5 L 454.5,457.0 L 455.0,456.5 L 456.0,456.5 L 456.5,456.0 L 457.0,455.5 L 458.0,455.5 L 458.5,455.0 L 459.0,454.5 L 460.0,454.5 L 460.5,454.0 L 461.0,453.5 L 461.5,453.0 L 462.0,452.5 L 463.0,452.5 L 463.5,452.0 L 464.0,451.5 L 465.0,451.5 L 465.5,451.0 L 466.0,450.5 L 466.5,450.0 L 467.0,449.5 L 468.0,449.5 L 468.5,449.0 L 469.0,448.5 L 469.5,448.0 L 470.0,447.5 L 471.0,447.5 L 471.5,447.0 L 472.0,446.5 L 473.0,446.5 L 473.5,446.0 L 474.0,445.5 L 475.0,445.5 L 475.5,445.0 L 476.0,444.5 L 476.5,444.0 L 477.0,443.5 L 478.0,443.5 L 478.5,443.0 L 479.0,442.5 L 480.0,442.5 L 480.5,442.0 L 481.0,441.5 L 481.5,441.0 L 482.0,440.5 L 483.0,440.5 L 483.5,440.0 L 484.0,439.5 L 485.0,439.5 L 485.5,439.0 L 486.0,438.5 L 486.5,438.0 L 487.0,437.5 L 488.0,437.5 L 488.5,437.0 L 489.0,436.5 L 490.0,436.5 L 490.5,436.0 L 491.0,435.5 L 492.0,435.5 L 492.5,435.0 L 493.0,434.5 L 493.5,434.0 L 494.0,433.5 L 495.0,433.5 L 495.5,433.0 L 496.0,432.5 L 496.5,432.0 L 497.0,431.5 L 498.0,431.5 L 498.5,431.0 L 499.0,430.5 L 500.0,430.5 L 500.5,430.0 L 501.0,429.5 L 501.5,429.0 L 502.0,428.5 L 503.0,428.5 L 503.5,428.0 L 504.0,427.5 L 505.0,427.5 L 505.5,427.0 L 506.0,426.5 L 507.0,426.5 L 507.5,426.0 L 508.0,425.5 L 508.5,425.0 L 509.0,424.5 L 510.0,424.5 L 510.5,424.0 L 511.0,423.5 L 512.0,423.5 L 512.5,423.0 L 513.0,422.5 L 513.5,422.0 L 514.0,421.5 L 515.0,421.5 L 515.5,421.0 L 516.0,420.5 L 517.0,420.5 L 517.5,420.0 L 518.0,419.5 L 518.5,419.0 L 519.0,418.5 L 520.0,418.5 L 520.5,418.0 L 521.0,417.5 L 522.0,417.5 L 522.5,417.0 L 523.0,416.5 L 524.0,416.5 L 524.5,416.0 L 525.0,415.5 L 525.5,415.0 L 526.0,414.5 L 526.5,414.0 L 527.0,413.5 L 527.5,413.0 L 528.0,412.5 L 528.5,412.0 L 529.0,411.5 L 529.5,411.0 L 529.5,410.0 L 530.0,409.5 L 530.5,409.0 L 531.0,408.5 L 531.5,408.0 L 531.5,407.0 L 531.5,406.0 L 532.0,405.5 L 532.5,405.0 L 532.5,404.0 L 533.0,403.5 L 533.5,403.0 L 533.5,402.0 L 533.5,401.0 L 533.5,400.0 L 533.5,399.0 L 533.5,398.0 L 533.5,397.0 L 533.5,396.0 L 533.5,395.0 L 533.5,394.0 L 533.5,393.0 L 533.5,392.0 L 533.5,391.0 L 533.0,390.5 L 532.5,390.0 L 532.5,389.0 L 532.0,388.5 L 531.5,388.0 L 531.5,387.0 L 531.5,386.0 L 531.0,385.5 L 530.5,385.0 L 530.0,384.5 L 529.5,384.0 L 529.0,383.5 L 528.5,383.0 L 528.5,382.0 L 528.0,381.5 L 527.5,381.0 L 527.0,380.5 L 526.0,380.5 L 525.5,380.0 L 525.0,379.5 L 524.5,379.0 L 524.0,378.5 L 523.0,378.5 L 522.5,378.0 L 522.0,377.5 L 521.0,377.5 L 520.0,377.5 L 519.5,377.0 L 519.0,376.5 L 518.0,376.5 L 517.0,376.5 L 516.5,376.0 L 516.0,375.5 L 515.0,375.5 L 514.0,375.5 L 513.0,375.5 L 512.0,375.5 L 511.5,376.0 L 511.0,376.5 L 510.0,376.5 L 509.0,376.5 L 508.0,376.5 L 507.5,377.0 L 507.0,377.5 L 506.0,377.5 L 505.5,378.0 L 505.0,378.5 L 504.5,379.0 L 504.0,379.5 L 503.0,379.5 L 502.5,380.0 L 502.0,380.5 L 501.0,380.5 L 500.5,381.0 L 500.0,381.5 L 499.0,381.5 L 498.5,382.0 L 498.0,382.5 L 497.5,383.0 L 497.0,383.5 L 496.0,383.5 L 495.5,384.0 L 495.0,384.5 L 494.0,384.5 L 493.5,385.0 L 493.0,385.5 L 492.0,385.5 L 491.5,386.0 L 491.0,386.5 L 490.5,387.0 L 490.0,387.5 L 489.0,387.5 L 488.5,388.0 L 488.0,388.5 L 487.5,389.0 L 487.0,389.5 L 486.0,389.5 L 485.5,390.0 L 485.0,390.5 L 484.0,390.5 L 483.5,391.0 L 483.0,391.5 L 482.0,391.5 L 481.5,392.0 L 481.0,392.5 L 480.5,393.0 L 480.0,393.5 L 479.0,393.5 L 478.5,394.0 L 478.0,394.5 L 477.0,394.5 L 476.5,395.0 L 476.0,395.5 L 475.5,396.0 L 475.0,396.5 L 474.0,396.5 L 473.5,397.0 L 473.0,397.5 L 472.5,398.0 L 472.0,398.5 L 471.0,398.5 L 470.5,399.0 L 470.0,399.5 L 469.0,399.5 L 468.5,400.0 L 468.0,400.5 L 467.5,401.0 L 467.0,401.5 L 466.0,401.5 L 465.5,402.0 L 465.0,402.5 L 464.0,402.5 L 463.5,403.0 L 463.0,403.5 L 462.0,403.5 L 461.5,404.0 L 461.0,404.5 L 460.5,405.0 L 460.0,405.5 L 459.0,405.5 L 458.5,406.0 L 458.0,406.5 L 457.5,407.0 L 457.0,407.5 L 456.0,407.5 L 455.5,408.0 L 455.0,408.5 L 454.0,408.5 L 453.5,409.0 L 453.0,409.5 L 452.5,410.0 L 452.0,410.5 L 451.0,410.5 L 450.5,411.0 L 450.0,411.5 L 449.0,411.5 L 448.5,412.0 L 448.0,412.5 L 447.5,413.0 L 447.0,413.5 L 446.0,413.5 L 445.5,414.0 L 445.0,414.5 L 444.0,414.5 L 443.5,415.0 L 443.0,415.5 L 442.5,416.0 L 442.0,416.5 L 441.0,416.5 L 440.5,417.0 L 440.0,417.5 L 439.0,417.5 L 438.5,418.0 L 438.0,418.5 L 437.5,419.0 L 437.0,419.5 L 436.0,419.5 L 435.5,420.0 L 435.0,420.5 L 434.0,420.5 L 433.5,421.0 L 433.0,421.5 L 432.0,421.5 L 431.5,422.0 L 431.0,422.5 L 430.5,423.0 L 430.0,423.5 L 429.0,423.5 L 428.5,424.0 L 428.0,424.5 L 427.5,425.0 L 427.0,425.5 L 426.0,425.5 L 425.5,426.0 L 425.0,426.5 L 424.0,426.5 L 423.5,427.0 L 423.0,427.5 L 422.5,428.0 L 422.0,428.5 L 421.0,428.5 L 420.5,429.0 L 420.0,429.5 L 419.0,429.5 L 418.5,430.0 L 418.0,430.5 L 417.5,431.0 L 417.0,431.5 L 416.0,431.5 L 415.5,432.0 L 415.0,432.5 L 414.0,432.5 L 413.5,433.0 L 413.0,433.5 L 412.5,434.0 L 412.0,434.5 L 411.0,434.5 L 410.5,435.0 L 410.0,435.5 L 409.0,435.5 L 408.5,436.0 L 408.0,436.5 L 407.5,437.0 L 407.0,437.5 L 406.0,437.5 L 405.5,438.0 L 405.0,438.5 L 404.5,439.0 L 404.0,439.5 L 403.0,439.5 L 402.5,440.0 L 402.0,440.5 L 401.0,440.5 L 400.5,441.0 L 400.0,441.5 L 399.0,441.5 L 398.5,442.0 L 398.0,442.5 L 397.5,443.0 L 397.0,443.5 L 396.0,443.5 L 395.5,444.0 L 395.0,444.5 L 394.0,444.5 L 393.5,445.0 L 393.0,445.5 L 392.5,446.0 L 392.0,446.5 L 391.0,446.5 L 390.5,447.0 L 390.0,447.5 L 389.5,448.0 L 389.0,448.5 L 388.0,448.5 L 387.5,449.0 L 387.0,449.5 L 386.0,449.5 L 385.5,450.0 L 385.0,450.5 L 384.0,450.5 L 383.5,451.0 L 383.0,451.5 L 382.5,452.0 L 382.0,452.5 L 381.0,452.5 L 380.5,453.0 L 380.0,453.5 L 379.5,454.0 L 379.0,454.5 L 378.0,454.5 L 377.5,455.0 L 377.0,455.5 L 376.0,455.5 L 375.5,456.0 L 375.0,456.5 L 374.5,457.0 L 374.0,457.5 L 373.0,457.5 L 372.5,458.0 L 372.0,458.5 L 371.0,458.5 L 370.5,459.0 L 370.0,459.5 L 369.5,460.0 L 369.0,460.5 L 368.0,460.5 L 367.5,461.0 L 367.0,461.5 L 366.0,461.5 L 365.5,462.0 L 365.0,462.5 L 364.5,463.0 L 364.0,463.5 L 363.0,463.5 L 362.5,464.0 L 362.0,464.5 L 361.0,464.5 L 360.5,465.0 L 360.0,465.5 L 359.5,466.0 L 359.0,466.5 L 358.0,466.5 L 357.5,467.0 L 357.0,467.5 L 356.0,467.5 L 355.5,468.0 L 355.0,468.5 L 354.5,468.0 L 354.5,467.0 L 354.5,466.0 L 354.5,465.0 L 354.5,464.0 L 354.5,463.0 L 354.5,462.0 L 354.5,461.0 L 354.5,460.0 L 354.5,459.0 L 354.5,458.0 L 354.5,457.0 L 354.5,456.0 L 354.5,455.0 L 354.5,454.0 L 354.5,453.0 L 354.5,452.0 L 354.5,451.0 L 354.5,450.0 L 354.5,449.0 L 354.5,448.0 L 354.5,447.0 L 354.5,446.0 L 354.5,445.0 L 354.5,444.0 L 354.5,443.0 L 354.5,442.0 L 354.5,441.0 L 354.5,440.0 L 354.5,439.0 L 354.5,438.0 L 354.5,437.0 L 354.5,436.0 L 354.5,435.0 L 354.5,434.0 L 354.5,433.0 L 354.5,432.0 L 354.5,431.0 L 354.5,430.0 L 354.5,429.0 L 354.5,428.0 L 354.5,427.0 L 354.5,426.0 L 354.5,425.0 L 354.5,424.0 L 354.5,423.0 L 354.5,422.0 L 354.5,421.0 L 354.5,420.0 L 354.5,419.0 L 354.5,418.0 L 354.5,417.0 L 354.5,416.0 L 354.5,415.0 L 354.5,414.0 L 354.5,413.0 L 354.5,412.0 L 354.5,411.0 L 354.5,410.0 L 354.5,409.0 L 354.5,408.0 L 354.5,407.0 L 354.5,406.0 L 354.5,405.0 L 354.5,404.0 L 354.5,403.0 L 354.5,402.0 L 354.5,401.0 L 354.5,400.0 L 354.5,399.0 L 354.5,398.0 L 354.5,397.0 L 354.5,396.0 L 354.5,395.0 L 354.5,394.0 L 354.5,393.0 L 354.5,392.0 L 354.5,391.0 L 354.5,390.0 L 354.5,389.0 L 354.5,388.0 L 354.5,387.0 L 354.5,386.0 L 354.5,385.0 L 354.5,384.0 L 354.5,383.0 L 354.5,382.0 L 354.5,381.0 L 354.5,380.0 L 354.5,379.0 L 354.5,378.0 L 354.5,377.0 L 354.5,376.0 L 354.5,375.0 L 354.5,374.0 L 354.5,373.0 L 354.5,372.0 L 354.5,371.0 L 354.5,370.0 L 354.5,369.0 L 354.5,368.0 L 354.5,367.0 L 354.5,366.0 L 354.5,365.0 L 354.5,364.0 L 354.5,363.0 L 354.5,362.0 L 354.5,361.0 L 354.5,360.0 L 354.5,359.0 L 354.5,358.0 L 354.5,357.0 L 354.5,356.0 L 354.5,355.0 L 354.5,354.0 L 354.5,353.0 L 354.5,352.0 L 354.5,351.0 L 354.5,350.0 L 354.5,349.0 L 354.5,348.0 L 354.5,347.0 L 354.5,346.0 L 354.5,345.0 L 354.5,344.0 L 354.5,343.0 L 354.5,342.0 L 354.5,341.0 L 354.5,340.0 L 354.5,339.0 L 354.5,338.0 L 354.5,337.0 L 354.5,336.0 L 354.5,335.0 L 354.5,334.0 L 354.5,333.0 L 354.5,332.0 L 354.5,331.0 L 354.5,330.0 L 354.5,329.0 L 354.5,328.0 L 354.5,327.0 L 354.5,326.0 L 354.5,325.0 L 355.0,324.5 L 355.5,324.0 L 355.5,323.0 L 355.5,322.0 L 355.5,321.0 L 355.5,320.0 L 356.0,319.5 L 356.5,319.0 L 356.5,318.0 L 356.5,317.0 L 356.5,316.0 L 357.0,315.5 L 357.5,315.0 L 357.5,314.0 L 357.5,313.0 L 357.5,312.0 L 358.0,311.5 L 358.5,311.0 L 358.5,310.0 L 358.5,309.0 L 359.0,308.5 L 359.5,308.0 L 359.5,307.0 L 360.0,306.5 L 360.5,306.0 L 360.5,305.0 L 361.0,304.5 L 361.5,304.0 L 361.5,303.0 L 361.5,302.0 L 362.0,301.5 L 362.5,301.0 L 363.0,300.5 L 363.5,300.0 L 363.5,299.0 L 364.0,298.5 L 364.5,298.0 L 364.5,297.0 L 365.0,296.5 L 365.5,296.0 L 365.5,295.0 L 366.0,294.5 L 366.5,294.0 L 367.0,293.5 L 367.5,293.0 L 367.5,292.0 L 368.0,291.5 L 368.5,291.0 L 369.0,290.5 L 369.5,290.0 L 370.0,289.5 L 370.5,289.0 L 370.5,288.0 L 371.0,287.5 L 371.5,287.0 L 372.0,286.5 L 372.5,286.0 L 373.0,285.5 L 373.5,285.0 L 374.0,284.5 L 374.5,284.0 L 375.0,283.5 L 375.5,283.0 L 376.0,282.5 L 376.5,282.0 L 377.0,281.5 L 377.5,281.0 L 378.0,280.5 L 378.5,280.0 L 379.0,279.5 L 380.0,279.5 L 380.5,279.0 L 381.0,278.5 L 381.5,278.0 L 382.0,277.5 L 383.0,277.5 L 383.5,277.0 L 384.0,276.5 L 384.5,276.0 L 385.0,275.5 L 386.0,275.5 L 386.5,275.0 L 387.0,274.5 L 387.5,274.0 L 388.0,273.5 L 389.0,273.5 L 389.5,273.0 L 390.0,272.5 L 391.0,272.5 L 391.5,272.0 L 392.0,271.5 L 392.5,271.0 L 393.0,270.5 L 394.0,270.5 L 394.5,270.0 L 395.0,269.5 L 396.0,269.5 L 396.5,269.0 L 397.0,268.5 L 397.5,268.0 L 398.0,267.5 L 399.0,267.5 L 399.5,267.0 L 400.0,266.5 L 400.5,266.0 L 401.0,265.5 L 402.0,265.5 L 402.5,265.0 L 403.0,264.5 L 404.0,264.5 L 404.5,264.0 L 405.0,263.5 L 405.5,263.0 L 406.0,262.5 L 407.0,262.5 L 407.5,262.0 L 408.0,261.5 L 409.0,261.5 L 409.5,261.0 L 410.0,260.5 L 410.5,260.0 L 411.0,259.5 L 412.0,259.5 L 412.5,259.0 L 413.0,258.5 L 413.5,258.0 L 414.0,257.5 L 415.0,257.5 L 415.5,257.0 L 416.0,256.5 L 417.0,256.5 L 417.5,256.0 L 418.0,255.5 L 418.5,255.0 L 419.0,254.5 L 420.0,254.5 L 420.5,254.0 L 421.0,253.5 L 421.5,253.0 L 422.0,252.5 L 423.0,252.5 L 423.5,252.0 L 424.0,251.5 L 425.0,251.5 L 425.5,251.0 L 426.0,250.5 L 426.5,250.0 L 427.0,249.5 L 428.0,249.5 L 428.5,249.0 L 429.0,248.5 L 430.0,248.5 L 430.5,248.0 L 431.0,247.5 L 431.5,247.0 L 432.0,246.5 L 433.0,246.5 L 433.5,246.0 L 434.0,245.5 L 434.5,245.0 L 435.0,244.5 L 436.0,244.5 L 436.5,244.0 L 437.0,243.5 L 438.0,243.5 L 438.5,243.0 L 439.0,242.5 L 439.5,242.0 L 440.0,241.5 L 441.0,241.5 L 441.5,241.0 L 442.0,240.5 L 443.0,240.5 L 443.5,240.0 L 444.0,239.5 L 444.5,239.0 L 445.0,238.5 L 446.0,238.5 L 446.5,238.0 L 447.0,237.5 L 447.5,237.0 L 448.0,236.5 L 449.0,236.5 L 449.5,236.0 L 450.0,235.5 L 451.0,235.5 L 451.5,235.0 L 452.0,234.5 L 452.5,234.0 L 453.0,233.5 L 454.0,233.5 L 454.5,233.0 L 455.0,232.5 L 456.0,232.5 L 456.5,232.0 L 457.0,231.5 L 457.5,231.0 L 458.0,230.5 L 459.0,230.5 L 459.5,230.0 L 460.0,229.5 L 460.5,229.0 L 461.0,228.5 L 462.0,228.5 L 462.5,228.0 L 463.0,227.5 L 463.5,227.0 L 464.0,226.5 L 465.0,226.5 L 465.5,226.0 L 466.0,225.5 L 467.0,225.5 L 467.5,225.0 L 468.0,224.5 L 469.0,224.5 L 469.5,224.0 L 470.0,223.5 L 470.5,223.0 L 471.0,222.5 L 472.0,222.5 L 472.5,222.0 L 473.0,221.5 L 473.5,221.0 L 474.0,220.5 L 475.0,220.5 L 475.5,220.0 L 476.0,219.5 L 476.5,219.0 L 477.0,218.5 L 478.0,218.5 L 478.5,218.0 L 479.0,217.5 L 480.0,217.5 L 480.5,217.0 L 481.0,216.5 L 481.5,216.0 L 482.0,215.5 L 483.0,215.5 L 483.5,215.0 L 484.0,214.5 L 484.5,214.0 L 485.0,213.5 L 486.0,213.5 L 486.5,213.0 L 487.0,212.5 L 488.0,212.5 L 488.5,212.0 L 489.0,211.5 L 489.5,211.0 L 490.0,210.5 L 491.0,210.5 L 491.5,210.0 L 492.0,209.5 L 492.5,209.0 L 493.0,208.5 L 494.0,208.5 L 494.5,208.0 L 495.0,207.5 L 496.0,207.5 L 496.5,207.0 L 497.0,206.5 L 498.0,206.5 L 498.5,206.0 L 499.0,205.5 L 500.0,205.5 L 501.0,205.5 L 501.5,205.0 L 502.0,204.5 L 503.0,204.5 L 504.0,204.5 L 504.5,204.0 L 505.0,203.5 L 506.0,203.5 L 507.0,203.5 L 507.5,203.0 L 508.0,202.5 L 509.0,202.5 L 510.0,202.5 L 511.0,202.5 L 512.0,202.5 L 512.5,202.0 L 513.0,201.5 L 514.0,201.5 L 515.0,201.5 L 516.0,201.5 L 517.0,201.5 L 518.0,201.5 L 519.0,201.5 L 520.0,201.5 L 521.0,201.5 L 522.0,201.5 L 523.0,201.5 L 524.0,201.5 L 525.0,201.5 L 526.0,201.5 L 527.0,201.5 L 528.0,201.5 L 529.0,201.5 L 530.0,201.5 L 530.5,202.0 L 531.0,202.5 L 532.0,202.5 L 533.0,202.5 L 534.0,202.5 L 535.0,202.5 L 535.5,203.0 L 536.0,203.5 L 537.0,203.5 L 538.0,203.5 L 538.5,204.0 L 539.0,204.5 L 540.0,204.5 L 541.0,204.5 L 541.5,205.0 L 542.0,205.5 L 543.0,205.5 L 544.0,205.5 L 544.5,206.0 L 545.0,206.5 L 546.0,206.5 L 546.5,207.0 L 547.0,207.5 L 548.0,207.5 L 548.5,208.0 L 549.0,208.5 L 550.0,208.5 L 550.5,209.0 L 551.0,209.5 L 552.0,209.5 L 552.5,210.0 L 553.0,210.5 L 553.5,211.0 L 554.0,211.5 L 555.0,211.5 L 555.5,212.0 L 556.0,212.5 L 557.0,212.5 L 557.5,213.0 L 558.0,213.5 L 558.5,214.0 L 559.0,214.5 L 560.0,214.5 L 560.5,215.0 L 561.0,215.5 L 561.5,216.0 L 562.0,216.5 L 563.0,216.5 L 563.5,217.0 L 564.0,217.5 L 565.0,217.5 L 565.5,218.0 L 566.0,218.5 L 566.5,219.0 L 567.0,219.5 L 568.0,219.5 L 568.5,220.0 L 569.0,220.5 L 570.0,220.5 L 570.5,221.0 L 571.0,221.5 L 571.5,222.0 L 572.0,222.5 L 573.0,222.5 L 573.5,223.0 L 574.0,223.5 L 574.5,224.0 L 575.0,224.5 L 576.0,224.5 L 576.5,225.0 L 577.0,225.5 L 578.0,225.5 L 578.5,226.0 L 579.0,226.5 L 579.5,227.0 L 580.0,227.5 L 581.0,227.5 L 581.5,228.0 L 582.0,228.5 L 583.0,228.5 L 583.5,229.0 L 584.0,229.5 L 584.5,230.0 L 585.0,230.5 L 586.0,230.5 L 586.5,231.0 L 587.0,231.5 L 588.0,231.5 L 588.5,232.0 L 589.0,232.5 L 589.5,233.0 L 590.0,233.5 L 591.0,233.5 L 591.5,234.0 L 592.0,234.5 L 593.0,234.5 L 593.5,235.0 L 594.0,235.5 L 594.5,236.0 L 595.0,236.5 L 596.0,236.5 L 596.5,237.0 L 597.0,237.5 L 597.5,238.0 L 598.0,238.5 L 599.0,238.5 L 599.5,239.0 L 600.0,239.5 L 601.0,239.5 L 601.5,240.0 L 602.0,240.5 L 602.5,241.0 L 603.0,241.5 L 604.0,241.5 L 604.5,242.0 L 605.0,242.5 L 606.0,242.5 L 606.5,243.0 L 607.0,243.5 L 607.5,244.0 L 608.0,244.5 L 609.0,244.5 L 609.5,245.0 L 610.0,245.5 L 611.0,245.5 L 611.5,246.0 L 612.0,246.5 L 612.5,247.0 L 613.0,247.5 L 614.0,247.5 L 614.5,248.0 L 615.0,248.5 L 616.0,248.5 L 616.5,249.0 L 617.0,249.5 L 617.5,250.0 L 618.0,250.5 L 619.0,250.5 L 619.5,251.0 L 620.0,251.5 L 621.0,251.5 L 621.5,252.0 L 622.0,252.5 L 622.5,253.0 L 623.0,253.5 L 624.0,253.5 L 624.5,254.0 L 625.0,254.5 L 626.0,254.5 L 626.5,255.0 L 627.0,255.5 L 627.5,256.0 L 628.0,256.5 L 629.0,256.5 L 629.5,257.0 L 630.0,257.5 L 631.0,257.5 L 631.5,258.0 L 632.0,258.5 L 632.5,259.0 L 633.0,259.5 L 634.0,259.5 L 634.5,260.0 L 635.0,260.5 L 635.5,261.0 L 636.0,261.5 L 637.0,261.5 L 637.5,262.0 L 638.0,262.5 L 639.0,262.5 L 639.5,263.0 L 640.0,263.5 L 640.5,264.0 L 641.0,264.5 L 642.0,264.5 L 642.5,265.0 L 643.0,265.5 L 644.0,265.5 L 644.5,266.0 L 645.0,266.5 L 645.5,267.0 L 646.0,267.5 L 647.0,267.5 L 647.5,268.0 L 648.0,268.5 L 649.0,268.5 L 649.5,269.0 L 650.0,269.5 L 650.5,270.0 L 651.0,270.5 L 652.0,270.5 L 652.5,271.0 L 653.0,271.5 L 654.0,271.5 L 654.5,272.0 L 655.0,272.5 L 655.5,273.0 L 656.0,273.5 L 657.0,273.5 L 657.5,274.0 L 658.0,274.5 L 658.5,275.0 L 659.0,275.5 L 660.0,275.5 L 660.5,276.0 L 661.0,276.5 L 662.0,276.5 L 662.5,277.0 L 663.0,277.5 L 663.5,278.0 L 664.0,278.5 L 665.0,278.5 L 665.5,279.0 L 666.0,279.5 L 667.0,279.5 L 667.5,280.0 L 668.0,280.5 L 668.5,281.0 L 669.0,281.5 L 670.0,281.5 L 670.5,282.0 L 671.0,282.5 L 672.0,282.5 L 672.5,283.0 L 673.0,283.5 L 673.5,284.0 L 674.0,284.5 L 675.0,284.5 L 675.5,285.0 L 676.0,285.5 L 676.5,286.0 L 677.0,286.5 L 678.0,286.5 L 678.5,287.0 L 679.0,287.5 L 679.5,288.0 L 680.0,288.5 L 680.5,289.0 L 681.0,289.5 L 681.5,290.0 L 682.0,290.5 L 682.5,291.0 L 683.0,291.5 L 683.5,292.0 L 683.5,293.0 L 684.0,293.5 L 684.5,294.0 L 685.0,294.5 L 685.5,295.0 L 685.5,296.0 L 686.0,296.5 L 686.5,297.0 L 687.0,297.5 L 687.5,298.0 L 687.5,299.0 L 688.0,299.5 L 688.5,300.0 L 688.5,301.0 L 688.5,302.0 L 689.0,302.5 L 689.5,303.0 L 689.5,304.0 L 690.0,304.5 L 690.5,305.0 L 690.5,306.0 L 690.5,307.0 L 690.5,308.0 L 690.5,309.0 L 691.0,309.5 L 691.5,310.0 L 691.5,311.0 L 691.5,312.0 L 691.5,313.0 L 691.5,314.0 L 691.5,315.0 L 691.5,316.0 L 691.5,317.0 L 691.5,318.0 L 691.5,319.0 L 691.5,320.0 L 691.5,321.0 L 691.5,322.0 L 691.5,323.0 L 691.5,324.0 L 691.5,325.0 L 691.5,326.0 L 691.5,327.0 L 691.5,328.0 L 691.5,329.0 L 691.5,330.0 L 691.5,331.0 L 691.5,332.0 L 691.5,333.0 L 691.5,334.0 L 691.5,335.0 L 691.5,336.0 L 691.5,337.0 L 691.5,338.0 L 691.5,339.0 L 691.5,340.0 L 691.5,341.0 L 691.5,342.0 L 691.5,343.0 L 691.5,344.0 L 691.5,345.0 L 691.5,346.0 L 691.5,347.0 L 691.5,348.0 L 691.5,349.0 L 691.5,350.0 L 691.5,351.0 L 691.5,352.0 L 691.5,353.0 L 691.5,354.0 L 691.5,355.0 L 691.5,356.0 L 691.5,357.0 L 691.5,358.0 L 691.5,359.0 L 691.5,360.0 L 691.5,361.0 L 691.5,362.0 L 691.5,363.0 L 691.5,364.0 L 691.5,365.0 L 691.5,366.0 L 691.5,367.0 L 691.5,368.0 L 691.5,369.0 L 691.5,370.0 L 691.5,371.0 L 691.5,372.0 L 691.5,373.0 L 691.5,374.0 L 691.5,375.0 L 691.5,376.0 L 691.5,377.0 L 691.5,378.0 L 691.5,379.0 L 691.5,380.0 L 691.5,381.0 L 691.5,382.0 L 691.5,383.0 L 691.5,384.0 L 691.5,385.0 L 691.5,386.0 L 691.5,387.0 L 691.5,388.0 L 691.5,389.0 L 691.5,390.0 L 691.5,391.0 L 691.5,392.0 L 691.5,393.0 L 691.5,394.0 L 691.5,395.0 L 691.5,396.0 L 691.5,397.0 L 691.5,398.0 L 691.5,399.0 L 691.5,400.0 L 691.5,401.0 L 691.5,402.0 L 691.5,403.0 L 691.5,404.0 L 691.5,405.0 L 691.5,406.0 L 691.5,407.0 L 691.5,408.0 L 691.5,409.0 L 691.5,410.0 L 691.5,411.0 L 691.5,412.0 L 691.5,413.0 L 691.5,414.0 L 691.5,415.0 L 691.5,416.0 L 691.5,417.0 L 691.5,418.0 L 691.5,419.0 L 691.5,420.0 L 691.5,421.0 L 691.5,422.0 L 691.5,423.0 L 691.5,424.0 L 691.5,425.0 L 691.5,426.0 L 691.5,427.0 L 691.5,428.0 L 691.5,429.0 L 691.5,430.0 L 691.5,431.0 L 691.5,432.0 L 691.5,433.0 L 691.5,434.0 L 691.5,435.0 L 691.0,435.5 L 690.5,436.0 L 690.5,437.0 L 690.5,438.0 L 690.5,439.0 L 690.5,440.0 L 690.0,440.5 L 689.5,441.0 L 689.5,442.0 L 689.5,443.0 L 689.0,443.5 L 688.5,444.0 L 688.5,445.0 L 688.0,445.5 L 687.5,446.0 L 687.5,447.0 L 687.0,447.5 L 686.5,448.0 L 686.5,449.0 L 686.0,449.5 L 685.5,450.0 L 685.5,451.0 L 685.0,451.5 L 684.5,452.0 L 684.0,452.5 L 683.5,453.0 L 683.5,454.0 L 683.0,454.5 L 682.5,455.0 L 682.0,455.5 L 681.5,456.0 L 681.5,457.0 L 681.0,457.5 L 680.5,458.0 L 680.0,458.5 L 679.5,459.0 L 679.0,459.5 L 678.5,460.0 L 678.0,460.5 L 677.5,461.0 L 677.0,461.5 L 676.0,461.5 L 675.5,462.0 L 675.0,462.5 L 674.5,463.0 L 674.0,463.5 L 673.0,463.5 L 672.5,464.0 L 672.0,464.5 L 671.5,465.0 L 671.0,465.5 L 670.0,465.5 L 669.5,466.0 L 669.0,466.5 L 668.0,466.5 L 667.5,467.0 L 667.0,467.5 L 666.5,468.0 L 666.0,468.5 L 665.0,468.5 L 664.5,469.0 L 664.0,469.5 L 663.5,470.0 L 663.0,470.5 L 662.0,470.5 L 661.5,471.0 L 661.0,471.5 L 660.0,471.5 L 659.5,472.0 L 659.0,472.5 L 658.5,473.0 L 658.0,473.5 L 657.0,473.5 L 656.5,474.0 L 656.0,474.5 L 655.0,474.5 L 654.5,475.0 L 654.0,475.5 L 653.5,476.0 L 653.0,476.5 L 652.0,476.5 L 651.5,477.0 L 651.0,477.5 L 650.0,477.5 L 649.5,478.0 L 649.0,478.5 L 648.5,479.0 L 648.0,479.5 L 647.0,479.5 L 646.5,480.0 L 646.0,480.5 L 645.5,481.0 L 645.0,481.5 L 644.0,481.5 L 643.5,482.0 L 643.0,482.5 L 642.0,482.5 L 641.5,483.0 L 641.0,483.5 L 640.5,484.0 L 640.0,484.5 L 639.0,484.5 L 638.5,485.0 L 638.0,485.5 L 637.0,485.5 L 636.5,486.0 L 636.0,486.5 L 635.5,487.0 L 635.0,487.5 L 634.0,487.5 L 633.5,488.0 L 633.0,488.5 L 632.5,489.0 L 632.0,489.5 L 631.0,489.5 L 630.5,490.0 L 630.0,490.5 L 629.0,490.5 L 628.5,491.0 L 628.0,491.5 L 627.5,492.0 L 627.0,492.5 L 626.0,492.5 L 625.5,493.0 L 625.0,493.5 L 624.5,494.0 L 624.0,494.5 L 623.0,494.5 L 622.5,495.0 L 622.0,495.5 L 621.0,495.5 L 620.5,496.0 L 620.0,496.5 L 619.5,497.0 L 619.0,497.5 L 618.0,497.5 L 617.5,498.0 L 617.0,498.5 L 616.0,498.5 L 615.5,499.0 L 615.0,499.5 L 614.5,500.0 L 614.0,500.5 L 613.0,500.5 L 612.5,501.0 L 612.0,501.5 L 611.5,502.0 L 611.0,502.5 L 610.0,502.5 L 609.5,503.0 L 609.0,503.5 L 608.0,503.5 L 607.5,504.0 L 607.0,504.5 L 606.5,505.0 L 606.0,505.5 L 605.0,505.5 L 604.5,506.0 L 604.0,506.5 L 603.0,506.5 L 602.5,507.0 L 602.0,507.5 L 601.5,508.0 L 601.0,508.5 L 600.0,508.5 L 599.5,509.0 L 599.0,509.5 L 598.5,510.0 L 598.0,510.5 L 597.0,510.5 L 596.5,511.0 L 596.0,511.5 L 595.0,511.5 L 594.5,512.0 L 594.0,512.5 L 593.5,513.0 L 593.0,513.5 L 592.0,513.5 L 591.5,514.0 L 591.0,514.5 L 590.5,515.0 L 590.0,515.5 L 589.0,515.5 L 588.5,516.0 L 588.0,516.5 L 587.0,516.5 L 586.5,517.0 L 586.0,517.5 L 585.5,518.0 L 585.0,518.5 L 584.0,518.5 L 583.5,519.0 L 583.0,519.5 L 582.0,519.5 L 581.5,520.0 L 581.0,520.5 L 580.5,521.0 L 580.0,521.5 L 579.0,521.5 L 578.5,522.0 L 578.0,522.5 L 577.5,523.0 L 577.0,523.5 L 576.0,523.5 L 575.5,524.0 L 575.0,524.5 L 574.0,524.5 L 573.5,525.0 L 573.0,525.5 L 572.5,526.0 L 572.0,526.5 L 571.0,526.5 L 570.5,527.0 L 570.0,527.5 L 569.5,528.0 L 569.0,528.5 L 568.0,528.5 L 567.5,529.0 L 567.0,529.5 L 566.0,529.5 L 565.5,530.0 L 565.0,530.5 L 564.5,531.0 L 564.0,531.5 L 563.0,531.5 L 562.5,532.0 L 562.0,532.5 L 561.0,532.5 L 560.5,533.0 L 560.0,533.5 L 559.5,534.0 L 559.0,534.5 L 558.0,534.5 L 557.5,535.0 L 557.0,535.5 L 556.0,535.5 L 555.5,536.0 L 555.0,536.5 L 554.5,537.0 L 554.0,537.5 L 553.0,537.5 L 552.5,538.0 L 552.0,538.5 L 551.5,539.0 L 551.0,539.5 L 550.0,539.5 L 549.5,540.0 L 549.0,540.5 L 548.0,540.5 L 547.5,541.0 L 547.0,541.5 L 546.5,542.0 L 546.0,542.5 L 545.0,542.5 L 544.5,543.0 L 544.0,543.5 L 543.5,544.0 L 543.0,544.5 L 542.0,544.5 L 541.5,545.0 L 541.0,545.5 L 540.0,545.5 L 539.5,546.0 L 539.0,546.5 L 538.5,547.0 L 538.0,547.5 L 537.0,547.5 L 536.5,548.0 L 536.0,548.5 L 535.0,548.5 L 534.5,549.0 L 534.0,549.5 L 533.5,550.0 L 533.0,550.5 L 532.0,550.5 L 531.5,551.0 L 531.0,551.5 L 530.0,551.5 L 529.5,552.0 L 529.0,552.5 L 528.5,553.0 L 528.0,553.5 L 527.0,553.5 L 526.5,554.0 L 526.0,554.5 L 525.5,555.0 L 525.0,555.5 L 524.0,555.5 L 523.5,556.0 L 523.0,556.5 L 522.0,556.5 L 521.5,557.0 L 521.0,557.5 L 520.5,558.0 L 520.0,558.5 L 519.0,558.5 L 518.5,559.0 L 518.0,559.5 L 517.5,560.0 L 517.0,560.5 L 516.0,560.5 L 515.5,561.0 L 515.0,561.5 L 514.0,561.5 L 513.5,562.0 L 513.0,562.5 L 512.5,563.0 L 512.0,563.5 L 511.0,563.5 L 510.5,564.0 L 510.0,564.5 L 509.0,564.5 L 508.5,565.0 L 508.0,565.5 L 507.5,566.0 L 507.0,566.5 L 506.0,566.5 L 505.5,567.0 L 505.0,567.5 L 504.5,568.0 L 504.0,568.5 L 503.0,568.5 L 502.5,569.0 L 502.0,569.5 L 501.0,569.5 L 500.5,570.0 L 500.0,570.5 L 499.5,571.0 L 499.0,571.5 L 498.0,571.5 L 497.5,572.0 L 497.0,572.5 L 496.0,572.5 L 495.5,573.0 L 495.0,573.5 L 494.5,574.0 L 494.0,574.5 L 493.0,574.5 L 492.5,575.0 L 492.0,575.5 L 491.0,575.5 L 490.5,576.0 L 490.0,576.5 L 489.5,577.0 L 489.0,577.5 L 488.0,577.5 L 487.5,578.0 L 487.0,578.5 L 486.5,579.0 L 486.0,579.5 L 485.0,579.5 L 484.5,580.0 L 484.0,580.5 L 483.0,580.5 L 482.5,581.0 L 482.0,581.5 L 481.5,582.0 L 481.0,582.5 L 480.0,582.5 L 479.5,583.0 L 479.0,583.5 L 478.0,583.5 L 477.5,584.0 L 477.0,584.5 L 476.5,585.0 L 476.0,585.5 L 475.0,585.5 L 474.5,586.0 L 474.0,586.5 L 473.5,587.0 L 473.0,587.5 L 472.0,587.5 L 471.5,588.0 L 471.0,588.5 L 470.0,588.5 L 469.5,589.0 L 469.0,589.5 L 468.5,590.0 L 468.0,590.5 L 467.0,590.5 L 466.5,591.0 L 466.0,591.5 L 465.0,591.5 L 464.5,592.0 L 464.0,592.5 L 463.5,593.0 L 463.0,593.5 L 462.0,593.5 L 461.5,594.0 L 461.0,594.5 L 460.5,595.0 L 460.0,595.5 L 459.0,595.5 L 458.5,596.0 L 458.0,596.5 L 457.0,596.5 L 456.5,597.0 L 456.0,597.5 L 455.5,598.0 L 455.0,598.5 L 454.0,598.5 L 453.5,599.0 L 453.0,599.5 L 452.0,599.5 L 451.5,600.0 L 451.0,600.5 L 450.5,601.0 L 450.0,601.5 L 449.0,601.5 L 448.5,602.0 L 448.0,602.5 L 447.5,603.0 L 447.0,603.5 L 446.0,603.5 L 445.5,604.0 L 445.0,604.5 L 444.0,604.5 L 443.5,605.0 L 443.0,605.5 L 442.5,606.0 L 442.0,606.5 L 441.0,606.5 L 440.5,607.0 L 440.0,607.5 L 439.0,607.5 L 438.5,608.0 L 438.0,608.5 L 437.5,609.0 L 437.0,609.5 L 436.0,609.5 L 435.5,610.0 L 435.0,610.5 L 434.5,611.0 L 434.0,611.5 L 433.0,611.5 L 432.5,612.0 L 432.0,612.5 L 431.0,612.5 L 430.5,613.0 L 430.0,613.5 L 429.5,614.0 L 429.0,614.5 L 428.0,614.5 L 427.5,615.0 L 427.0,615.5 L 426.0,615.5 L 425.5,616.0 L 425.0,616.5 L 424.5,617.0 L 424.0,617.5 L 423.0,617.5 L 422.5,618.0 L 422.0,618.5 L 421.5,619.0 L 421.0,619.5 L 420.0,619.5 L 419.5,620.0 L 419.0,620.5 L 418.0,620.5 L 417.5,621.0 L 417.0,621.5 L 416.5,622.0 L 416.0,622.5 L 415.0,622.5 L 414.5,623.0 L 414.0,623.5 L 413.5,624.0 L 413.0,624.5 L 412.0,624.5 L 411.5,625.0 L 411.0,625.5 L 410.0,625.5 L 409.5,626.0 L 409.0,626.5 L 408.0,626.5 L 407.5,627.0 L 407.0,627.5 L 406.5,628.0 L 406.0,628.5 L 405.0,628.5 L 404.5,629.0 L 404.0,629.5 L 403.0,629.5 L 402.5,630.0 L 402.0,630.5 L 401.5,631.0 L 401.0,631.5 L 400.0,631.5 L 399.5,632.0 L 399.0,632.5 L 398.5,633.0 L 398.0,633.5 L 397.0,633.5 L 396.5,634.0 L 396.0,634.5 L 395.0,634.5 L 394.5,635.0 L 394.0,635.5 L 393.5,636.0 L 393.0,636.5 L 392.0,636.5 L 391.5,637.0 L 391.0,637.5 L 390.0,637.5 L 389.5,638.0 L 389.0,638.5 L 388.5,639.0 L 388.0,639.5 L 387.0,639.5 L 386.5,640.0 L 386.0,640.5 L 385.0,640.5 L 384.5,641.0 L 384.0,641.5 L 383.5,642.0 L 383.0,642.5 L 382.0,642.5 L 381.5,643.0 L 381.0,643.5 L 380.0,643.5 L 379.5,644.0 L 379.0,644.5 L 378.5,645.0 L 378.0,645.5 L 377.0,645.5 L 376.5,646.0 L 376.0,646.5 L 375.5,647.0 L 375.0,647.5 L 374.5,648.0 L 374.0,648.5 L 373.5,649.0 L 373.5,650.0 L 373.5,651.0 L 373.5,652.0 L 373.5,653.0 L 373.5,654.0 L 373.5,655.0 L 373.5,656.0 L 373.5,657.0 L 373.5,658.0 L 373.5,659.0 L 373.5,660.0 L 373.5,661.0 L 373.5,662.0 L 373.5,663.0 L 373.5,664.0 L 373.5,665.0 L 373.5,666.0 L 373.5,667.0 L 373.5,668.0 L 373.5,669.0 L 373.5,670.0 L 373.5,671.0 L 373.5,672.0 L 373.5,673.0 L 373.5,674.0 L 373.5,675.0 L 373.5,676.0 L 373.5,677.0 L 373.5,678.0 L 373.5,679.0 L 373.5,680.0 L 373.5,681.0 L 373.5,682.0 L 373.5,683.0 L 373.5,684.0 L 373.5,685.0 L 373.5,686.0 L 373.5,687.0 L 373.5,688.0 L 373.5,689.0 L 373.5,690.0 L 373.5,691.0 L 373.5,692.0 L 373.5,693.0 L 373.5,694.0 L 373.5,695.0 L 373.5,696.0 L 373.5,697.0 L 373.5,698.0 L 373.5,699.0 L 373.5,700.0 L 373.5,701.0 L 373.5,702.0 L 373.5,703.0 L 373.5,704.0 L 373.5,705.0 L 373.5,706.0 L 373.5,707.0 L 373.5,708.0 L 373.5,709.0 L 373.5,710.0 L 373.5,711.0 L 373.5,712.0 L 373.5,713.0 L 373.5,714.0 L 373.5,715.0 L 373.5,716.0 L 373.5,717.0 L 373.5,718.0 L 373.5,719.0 L 373.5,720.0 L 373.5,721.0 L 373.5,722.0 L 373.5,723.0 L 373.5,724.0 L 373.5,725.0 L 373.5,726.0 L 373.5,727.0 L 373.5,728.0 L 373.5,729.0 L 373.5,730.0 L 373.5,731.0 L 373.5,732.0 L 373.5,733.0 L 373.5,734.0 L 373.5,735.0 L 373.5,736.0 L 373.5,737.0 L 373.5,738.0 L 373.5,739.0 L 373.5,740.0 L 373.5,741.0 L 373.5,742.0 L 373.5,743.0 L 373.5,744.0 L 373.5,745.0 L 373.5,746.0 L 373.5,747.0 L 373.5,748.0 L 373.5,749.0 L 373.5,750.0 L 373.5,751.0 L 373.5,752.0 L 373.5,753.0 L 373.5,754.0 L 373.5,755.0 L 373.5,756.0 L 373.5,757.0 L 373.5,758.0 L 373.5,759.0 L 373.5,760.0 L 373.5,761.0 L 373.5,762.0 L 373.5,763.0 L 373.5,764.0 L 373.5,765.0 L 373.5,766.0 L 373.5,767.0 L 373.5,768.0 L 373.5,769.0 L 373.5,770.0 L 373.5,771.0 L 373.5,772.0 L 373.5,773.0 L 373.5,774.0 L 373.5,775.0 L 373.5,776.0 L 373.5,777.0 L 373.5,778.0 L 373.5,779.0 L 373.5,780.0 L 373.5,781.0 L 373.5,782.0 L 373.5,783.0 L 373.5,784.0 L 373.5,785.0 L 373.5,786.0 L 373.5,787.0 L 373.5,788.0 L 373.5,789.0 L 373.5,790.0 L 373.5,791.0 L 373.5,792.0 L 373.5,793.0 L 373.5,794.0 L 373.5,795.0 L 373.5,796.0 L 373.5,797.0 L 373.5,798.0 L 373.5,799.0 L 373.5,800.0 L 373.5,801.0 L 373.5,802.0 L 373.5,803.0 L 373.5,804.0 L 373.5,805.0 L 373.5,806.0 L 373.5,807.0 L 373.5,808.0 L 373.5,809.0 L 373.5,810.0 L 373.5,811.0 L 373.5,812.0 L 373.5,813.0 L 373.5,814.0 L 373.5,815.0 L 373.5,816.0 L 373.5,817.0 L 373.5,818.0 L 373.5,819.0 L 373.5,820.0 L 373.5,821.0 L 373.5,822.0 L 373.5,823.0 L 373.5,824.0 L 373.5,825.0 L 373.5,826.0 L 373.5,827.0 L 373.5,828.0 L 373.5,829.0 L 373.5,830.0 L 373.5,831.0 L 373.5,832.0 L 373.5,833.0 L 373.5,834.0 L 373.5,835.0 L 373.5,836.0 L 373.5,837.0 L 373.5,838.0 L 373.5,839.0 L 373.5,840.0 L 373.5,841.0 L 373.5,842.0 L 373.5,843.0 L 373.5,844.0 L 373.5,845.0 L 373.5,846.0 L 373.5,847.0 L 373.5,848.0 L 373.5,849.0 L 373.5,850.0 L 373.5,851.0 L 373.5,852.0 L 373.5,853.0 L 373.5,854.0 L 373.5,855.0 L 373.5,856.0 L 373.5,857.0 L 373.5,858.0 L 373.5,859.0 L 373.5,860.0 L 373.5,861.0 L 373.5,862.0 L 373.5,863.0 L 373.5,864.0 L 373.5,865.0 L 373.5,866.0 L 373.5,867.0 L 373.5,868.0 L 373.5,869.0 L 373.5,870.0 L 373.5,871.0 L 373.5,872.0 L 373.5,873.0 L 373.5,874.0 L 373.5,875.0 L 373.5,876.0 L 373.0,876.5 Z" fill="#FF2D20" stroke="none" /><path d="M 457.5,357.0 L 458.0,356.5 L 459.0,356.5 L 460.0,356.5 L 461.0,356.5 L 461.5,356.0 L 462.0,355.5 L 463.0,355.5 L 463.5,355.0 L 464.0,354.5 L 465.0,354.5 L 465.5,354.0 L 466.0,353.5 L 467.0,353.5 L 467.5,353.0 L 468.0,352.5 L 468.5,352.0 L 469.0,351.5 L 469.5,351.0 L 470.0,350.5 L 470.5,350.0 L 471.0,349.5 L 471.5,349.0 L 472.0,348.5 L 472.5,348.0 L 473.0,347.5 L 473.5,347.0 L 474.0,346.5 L 474.5,346.0 L 474.5,345.0 L 475.0,344.5 L 475.5,344.0 L 475.5,343.0 L 476.0,342.5 L 476.5,342.0 L 476.5,341.0 L 477.0,340.5 L 477.5,340.0 L 477.5,339.0 L 477.5,338.0 L 477.5,337.0 L 478.0,336.5 L 478.5,336.0 L 478.5,335.0 L 478.5,334.0 L 478.5,333.0 L 478.5,332.0 L 478.5,331.0 L 478.5,330.0 L 478.5,329.0 L 478.0,328.5 L 477.5,328.0 L 477.5,327.0 L 477.5,326.0 L 477.5,325.0 L 477.0,324.5 L 476.5,324.0 L 476.5,323.0 L 476.5,322.0 L 476.0,321.5 L 475.5,321.0 L 475.5,320.0 L 475.0,319.5 L 474.5,319.0 L 474.5,318.0 L 474.0,317.5 L 473.5,317.0 L 473.0,316.5 L 472.5,316.0 L 472.0,315.5 L 471.5,315.0 L 471.0,314.5 L 470.5,314.0 L 470.0,313.5 L 469.5,313.0 L 469.0,312.5 L 468.5,312.0 L 468.0,311.5 L 467.5,311.0 L 467.0,310.5 L 466.0,310.5 L 465.5,310.0 L 465.0,309.5 L 464.0,309.5 L 463.5,309.0 L 463.0,308.5 L 462.0,308.5 L 461.5,308.0 L 461.0,307.5 L 460.0,307.5 L 459.0,307.5 L 458.0,307.5 L 457.5,307.0 L 457.0,306.5 L 456.0,306.5 L 455.0,306.5 L 454.0,306.5 L 453.0,306.5 L 452.0,306.5 L 451.0,306.5 L 450.0,306.5 L 449.0,306.5 L 448.5,307.0 L 448.0,307.5 L 447.0,307.5 L 446.0,307.5 L 445.0,307.5 L 444.5,308.0 L 444.0,308.5 L 443.0,308.5 L 442.5,309.0 L 442.0,309.5 L 441.0,309.5 L 440.5,310.0 L 440.0,310.5 L 439.0,310.5 L 438.5,311.0 L 438.0,311.5 L 437.5,312.0 L 437.0,312.5 L 436.5,313.0 L 436.0,313.5 L 435.5,314.0 L 435.0,314.5 L 434.5,315.0 L 434.0,315.5 L 433.5,316.0 L 433.0,316.5 L 432.5,317.0 L 432.5,318.0 L 432.0,318.5 L 431.5,319.0 L 431.0,319.5 L 430.5,320.0 L 430.5,321.0 L 430.5,322.0 L 430.0,322.5 L 429.5,323.0 L 429.5,324.0 L 429.0,324.5 L 428.5,325.0 L 428.5,326.0 L 428.5,327.0 L 428.5,328.0 L 428.5,329.0 L 428.5,330.0 L 428.0,330.5 L 427.5,331.0 L 427.5,332.0 L 427.5,333.0 L 427.5,334.0 L 428.0,334.5 L 428.5,335.0 L 428.5,336.0 L 428.5,337.0 L 428.5,338.0 L 428.5,339.0 L 429.0,339.5 L 429.5,340.0 L 429.5,341.0 L 429.5,342.0 L 430.0,342.5 L 430.5,343.0 L 430.5,344.0 L 431.0,344.5 L 431.5,345.0 L 432.0,345.5 L 432.5,346.0 L 432.5,347.0 L 433.0,347.5 L 433.5,348.0 L 434.0,348.5 L 434.5,349.0 L 435.0,349.5 L 435.5,350.0 L 436.0,350.5 L 436.5,351.0 L 437.0,351.5 L 437.5,352.0 L 438.0,352.5 L 438.5,353.0 L 439.0,353.5 L 440.0,353.5 L 440.5,354.0 L 441.0,354.5 L 442.0,354.5 L 442.5,355.0 L 443.0,355.5 L 444.0,355.5 L 444.5,356.0 L 445.0,356.5 L 446.0,356.5 L 447.0,356.5 L 448.0,356.5 L 448.5,357.0 L 449.0,357.5 L 450.0,357.5 L 451.0,357.5 L 452.0,357.5 L 453.0,357.5 L 454.0,357.5 L 455.0,357.5 L 456.0,357.5 L 457.0,357.5 L 457.5,357.0 Z" fill="#FF2D20" stroke="none" /><path d="M 882.0,876.5 L 881.0,876.5 L 880.5,876.0 L 880.5,875.0 L 880.5,874.0 L 880.5,873.0 L 880.5,872.0 L 880.5,871.0 L 880.5,870.0 L 880.5,869.0 L 880.5,868.0 L 880.5,867.0 L 880.5,866.0 L 880.5,865.0 L 880.5,864.0 L 880.5,863.0 L 880.5,862.0 L 880.5,861.0 L 880.5,860.0 L 880.5,859.0 L 880.5,858.0 L 880.5,857.0 L 880.5,856.0 L 880.5,855.0 L 880.5,854.0 L 880.5,853.0 L 880.5,852.0 L 880.5,851.0 L 880.5,850.0 L 880.5,849.0 L 880.5,848.0 L 880.5,847.0 L 880.5,846.0 L 880.5,845.0 L 880.5,844.0 L 880.5,843.0 L 880.5,842.0 L 880.5,841.0 L 880.5,840.0 L 880.5,839.0 L 880.5,838.0 L 880.5,837.0 L 880.5,836.0 L 880.5,835.0 L 880.5,834.0 L 880.5,833.0 L 880.5,832.0 L 880.5,831.0 L 880.5,830.0 L 880.5,829.0 L 880.5,828.0 L 880.5,827.0 L 880.5,826.0 L 880.5,825.0 L 880.5,824.0 L 880.5,823.0 L 880.5,822.0 L 880.5,821.0 L 880.5,820.0 L 880.5,819.0 L 880.5,818.0 L 880.5,817.0 L 880.5,816.0 L 880.5,815.0 L 880.5,814.0 L 880.5,813.0 L 880.5,812.0 L 880.5,811.0 L 880.5,810.0 L 880.5,809.0 L 880.5,808.0 L 880.5,807.0 L 880.5,806.0 L 880.5,805.0 L 880.5,804.0 L 880.5,803.0 L 880.5,802.0 L 880.5,801.0 L 880.5,800.0 L 880.5,799.0 L 880.5,798.0 L 880.5,797.0 L 880.5,796.0 L 880.5,795.0 L 880.5,794.0 L 880.5,793.0 L 880.5,792.0 L 880.5,791.0 L 880.5,790.0 L 880.5,789.0 L 880.5,788.0 L 880.5,787.0 L 880.5,786.0 L 880.5,785.0 L 880.5,784.0 L 880.5,783.0 L 880.5,782.0 L 880.5,781.0 L 880.5,780.0 L 880.5,779.0 L 880.5,778.0 L 880.5,777.0 L 880.5,776.0 L 880.5,775.0 L 880.5,774.0 L 880.5,773.0 L 880.5,772.0 L 880.5,771.0 L 880.5,770.0 L 880.5,769.0 L 880.5,768.0 L 880.5,767.0 L 880.5,766.0 L 880.5,765.0 L 880.5,764.0 L 880.5,763.0 L 880.5,762.0 L 880.5,761.0 L 880.5,760.0 L 880.5,759.0 L 880.5,758.0 L 880.5,757.0 L 880.5,756.0 L 880.5,755.0 L 880.5,754.0 L 880.5,753.0 L 880.5,752.0 L 880.5,751.0 L 880.5,750.0 L 880.5,749.0 L 880.5,748.0 L 880.5,747.0 L 880.5,746.0 L 880.5,745.0 L 880.5,744.0 L 880.5,743.0 L 880.5,742.0 L 880.5,741.0 L 880.5,740.0 L 880.5,739.0 L 880.5,738.0 L 880.5,737.0 L 880.5,736.0 L 880.5,735.0 L 880.5,734.0 L 880.5,733.0 L 880.5,732.0 L 880.5,731.0 L 880.5,730.0 L 880.5,729.0 L 880.5,728.0 L 880.5,727.0 L 880.5,726.0 L 880.5,725.0 L 880.5,724.0 L 880.5,723.0 L 880.5,722.0 L 880.5,721.0 L 880.5,720.0 L 880.5,719.0 L 880.5,718.0 L 880.5,717.0 L 880.5,716.0 L 880.5,715.0 L 880.5,714.0 L 880.5,713.0 L 880.5,712.0 L 880.5,711.0 L 880.5,710.0 L 880.5,709.0 L 880.5,708.0 L 880.5,707.0 L 880.5,706.0 L 880.5,705.0 L 880.5,704.0 L 880.5,703.0 L 880.5,702.0 L 880.5,701.0 L 880.5,700.0 L 880.5,699.0 L 880.5,698.0 L 880.5,697.0 L 880.5,696.0 L 880.5,695.0 L 880.5,694.0 L 880.5,693.0 L 880.5,692.0 L 880.5,691.0 L 880.5,690.0 L 880.5,689.0 L 880.5,688.0 L 880.5,687.0 L 880.5,686.0 L 880.5,685.0 L 880.5,684.0 L 880.5,683.0 L 880.5,682.0 L 880.5,681.0 L 880.5,680.0 L 880.5,679.0 L 880.5,678.0 L 880.5,677.0 L 880.5,676.0 L 880.5,675.0 L 880.5,674.0 L 880.5,673.0 L 880.5,672.0 L 880.5,671.0 L 880.5,670.0 L 880.5,669.0 L 880.5,668.0 L 880.5,667.0 L 880.5,666.0 L 880.5,665.0 L 880.5,664.0 L 880.5,663.0 L 880.5,662.0 L 880.5,661.0 L 880.5,660.0 L 880.5,659.0 L 880.5,658.0 L 880.5,657.0 L 880.5,656.0 L 880.5,655.0 L 880.5,654.0 L 880.5,653.0 L 880.5,652.0 L 880.5,651.0 L 880.5,650.0 L 880.5,649.0 L 880.5,648.0 L 880.5,647.0 L 880.5,646.0 L 880.5,645.0 L 880.5,644.0 L 880.5,643.0 L 880.5,642.0 L 880.5,641.0 L 880.5,640.0 L 880.5,639.0 L 880.5,638.0 L 880.5,637.0 L 880.5,636.0 L 880.5,635.0 L 880.5,634.0 L 880.5,633.0 L 880.5,632.0 L 880.5,631.0 L 880.5,630.0 L 880.5,629.0 L 880.5,628.0 L 880.5,627.0 L 880.5,626.0 L 880.5,625.0 L 880.5,624.0 L 880.5,623.0 L 880.5,622.0 L 880.5,621.0 L 880.5,620.0 L 880.5,619.0 L 880.5,618.0 L 880.5,617.0 L 880.5,616.0 L 880.5,615.0 L 880.5,614.0 L 880.5,613.0 L 880.5,612.0 L 880.5,611.0 L 880.5,610.0 L 880.5,609.0 L 880.5,608.0 L 880.5,607.0 L 880.5,606.0 L 880.5,605.0 L 880.5,604.0 L 880.5,603.0 L 880.5,602.0 L 880.5,601.0 L 880.5,600.0 L 880.5,599.0 L 880.5,598.0 L 880.5,597.0 L 880.5,596.0 L 880.5,595.0 L 880.5,594.0 L 880.5,593.0 L 880.5,592.0 L 880.5,591.0 L 880.5,590.0 L 880.5,589.0 L 880.5,588.0 L 880.5,587.0 L 880.5,586.0 L 880.5,585.0 L 880.5,584.0 L 880.5,583.0 L 880.5,582.0 L 880.5,581.0 L 880.5,580.0 L 880.5,579.0 L 880.5,578.0 L 880.5,577.0 L 880.5,576.0 L 880.5,575.0 L 880.5,574.0 L 880.5,573.0 L 880.5,572.0 L 880.5,571.0 L 880.5,570.0 L 880.5,569.0 L 880.5,568.0 L 880.5,567.0 L 880.5,566.0 L 880.5,565.0 L 880.5,564.0 L 880.5,563.0 L 880.5,562.0 L 880.5,561.0 L 880.5,560.0 L 880.5,559.0 L 880.5,558.0 L 880.5,557.0 L 880.5,556.0 L 880.5,555.0 L 880.5,554.0 L 880.5,553.0 L 880.5,552.0 L 880.5,551.0 L 880.5,550.0 L 880.5,549.0 L 880.5,548.0 L 880.5,547.0 L 880.5,546.0 L 880.5,545.0 L 880.5,544.0 L 880.0,543.5 L 879.5,543.0 L 879.0,542.5 L 878.0,542.5 L 877.5,542.0 L 877.0,541.5 L 876.5,541.0 L 876.0,540.5 L 875.0,540.5 L 874.5,540.0 L 874.0,539.5 L 873.0,539.5 L 872.5,539.0 L 872.0,538.5 L 871.5,538.0 L 871.0,537.5 L 870.0,537.5 L 869.5,537.0 L 869.0,536.5 L 868.5,536.0 L 868.0,535.5 L 867.0,535.5 L 866.5,535.0 L 866.0,534.5 L 865.5,534.0 L 865.0,533.5 L 864.0,533.5 L 863.5,533.0 L 863.0,532.5 L 862.5,532.0 L 862.0,531.5 L 861.0,531.5 L 860.5,531.0 L 860.0,530.5 L 859.0,530.5 L 858.5,530.0 L 858.0,529.5 L 857.0,529.5 L 856.5,529.0 L 856.0,528.5 L 855.5,528.0 L 855.0,527.5 L 854.0,527.5 L 853.5,527.0 L 853.0,526.5 L 852.5,526.0 L 852.0,525.5 L 851.0,525.5 L 850.5,525.0 L 850.0,524.5 L 849.0,524.5 L 848.5,524.0 L 848.0,523.5 L 847.5,523.0 L 847.0,522.5 L 846.0,522.5 L 845.5,522.0 L 845.0,521.5 L 844.5,521.0 L 844.0,520.5 L 843.0,520.5 L 842.5,520.0 L 842.0,519.5 L 841.0,519.5 L 840.5,519.0 L 840.0,518.5 L 839.5,518.0 L 839.0,517.5 L 838.0,517.5 L 837.5,517.0 L 837.0,516.5 L 836.5,516.0 L 836.0,515.5 L 835.0,515.5 L 834.5,515.0 L 834.0,514.5 L 833.0,514.5 L 832.5,514.0 L 832.0,513.5 L 831.5,513.0 L 831.0,512.5 L 830.0,512.5 L 829.5,512.0 L 829.0,511.5 L 828.5,511.0 L 828.0,510.5 L 827.0,510.5 L 826.5,510.0 L 826.0,509.5 L 825.5,509.0 L 825.0,508.5 L 824.0,508.5 L 823.5,508.0 L 823.0,507.5 L 822.0,507.5 L 821.5,507.0 L 821.0,506.5 L 820.5,506.0 L 820.0,505.5 L 819.0,505.5 L 818.5,505.0 L 818.0,504.5 L 817.0,504.5 L 816.5,504.0 L 816.0,503.5 L 815.5,503.0 L 815.0,502.5 L 814.0,502.5 L 813.5,502.0 L 813.0,501.5 L 812.5,501.0 L 812.0,500.5 L 811.0,500.5 L 810.5,500.0 L 810.0,499.5 L 809.0,499.5 L 808.5,499.0 L 808.0,498.5 L 807.5,498.0 L 807.0,497.5 L 806.0,497.5 L 805.5,497.0 L 805.0,496.5 L 804.5,496.0 L 804.0,495.5 L 803.0,495.5 L 802.5,495.0 L 802.0,494.5 L 801.0,494.5 L 800.5,494.0 L 800.0,493.5 L 799.5,493.0 L 799.0,492.5 L 798.0,492.5 L 797.5,492.0 L 797.0,491.5 L 796.0,491.5 L 795.5,491.0 L 795.0,490.5 L 794.5,490.0 L 794.0,489.5 L 793.0,489.5 L 792.5,489.0 L 792.0,488.5 L 791.5,488.0 L 791.0,487.5 L 790.0,487.5 L 789.5,487.0 L 789.0,486.5 L 788.5,486.0 L 788.0,485.5 L 787.0,485.5 L 786.5,485.0 L 786.0,484.5 L 785.0,484.5 L 784.5,484.0 L 784.0,483.5 L 783.5,483.0 L 783.0,482.5 L 782.0,482.5 L 781.5,482.0 L 781.0,481.5 L 780.0,481.5 L 779.5,481.0 L 779.0,480.5 L 778.5,480.0 L 778.0,479.5 L 777.0,479.5 L 776.5,479.0 L 776.0,478.5 L 775.5,478.0 L 775.0,477.5 L 774.0,477.5 L 773.5,477.0 L 773.0,476.5 L 772.0,476.5 L 771.5,476.0 L 771.0,475.5 L 770.5,475.0 L 770.0,474.5 L 769.0,474.5 L 768.5,474.0 L 768.0,473.5 L 767.5,473.0 L 767.0,472.5 L 766.0,472.5 L 765.5,472.0 L 765.0,471.5 L 764.0,471.5 L 763.5,471.0 L 763.0,470.5 L 762.5,470.0 L 762.0,469.5 L 761.0,469.5 L 760.5,469.0 L 760.0,468.5 L 759.5,468.0 L 759.0,467.5 L 758.0,467.5 L 757.5,467.0 L 757.0,466.5 L 756.0,466.5 L 755.5,466.0 L 755.0,465.5 L 754.5,465.0 L 754.0,464.5 L 753.5,464.0 L 753.0,463.5 L 752.0,463.5 L 751.5,463.0 L 751.0,462.5 L 750.5,462.0 L 750.0,461.5 L 749.5,461.0 L 749.5,460.0 L 749.0,459.5 L 748.5,459.0 L 748.0,458.5 L 747.5,458.0 L 747.0,457.5 L 746.5,457.0 L 746.5,456.0 L 746.0,455.5 L 745.5,455.0 L 745.5,454.0 L 745.0,453.5 L 744.5,453.0 L 744.5,452.0 L 744.0,451.5 L 743.5,451.0 L 743.5,450.0 L 743.0,449.5 L 742.5,449.0 L 742.5,448.0 L 742.5,447.0 L 742.0,446.5 L 741.5,446.0 L 741.5,445.0 L 741.5,444.0 L 741.5,443.0 L 741.5,442.0 L 741.5,441.0 L 741.0,440.5 L 740.5,440.0 L 740.5,439.0 L 740.5,438.0 L 740.5,437.0 L 740.5,436.0 L 740.5,435.0 L 740.5,434.0 L 740.5,433.0 L 740.5,432.0 L 740.5,431.0 L 740.5,430.0 L 740.5,429.0 L 740.5,428.0 L 740.5,427.0 L 740.5,426.0 L 740.5,425.0 L 740.5,424.0 L 740.5,423.0 L 740.5,422.0 L 740.5,421.0 L 740.5,420.0 L 740.5,419.0 L 740.5,418.0 L 740.5,417.0 L 740.5,416.0 L 740.5,415.0 L 740.5,414.0 L 740.5,413.0 L 740.5,412.0 L 740.5,411.0 L 740.5,410.0 L 740.5,409.0 L 740.5,408.0 L 740.5,407.0 L 740.5,406.0 L 740.5,405.0 L 740.5,404.0 L 740.5,403.0 L 740.5,402.0 L 740.5,401.0 L 740.5,400.0 L 740.5,399.0 L 740.5,398.0 L 740.5,397.0 L 740.5,396.0 L 740.5,395.0 L 740.5,394.0 L 740.5,393.0 L 740.5,392.0 L 740.5,391.0 L 740.5,390.0 L 740.5,389.0 L 740.5,388.0 L 740.5,387.0 L 740.5,386.0 L 740.5,385.0 L 740.5,384.0 L 740.5,383.0 L 740.5,382.0 L 740.5,381.0 L 740.5,380.0 L 740.5,379.0 L 740.5,378.0 L 740.5,377.0 L 740.5,376.0 L 740.5,375.0 L 740.5,374.0 L 740.5,373.0 L 740.5,372.0 L 740.5,371.0 L 740.5,370.0 L 740.5,369.0 L 740.5,368.0 L 740.5,367.0 L 740.5,366.0 L 740.5,365.0 L 740.5,364.0 L 740.5,363.0 L 740.5,362.0 L 740.5,361.0 L 740.5,360.0 L 740.5,359.0 L 740.5,358.0 L 740.5,357.0 L 740.5,356.0 L 740.5,355.0 L 740.5,354.0 L 740.5,353.0 L 740.5,352.0 L 740.5,351.0 L 740.5,350.0 L 740.5,349.0 L 740.5,348.0 L 740.5,347.0 L 740.5,346.0 L 740.5,345.0 L 740.5,344.0 L 740.5,343.0 L 740.5,342.0 L 740.5,341.0 L 740.5,340.0 L 740.5,339.0 L 740.5,338.0 L 740.5,337.0 L 740.5,336.0 L 740.5,335.0 L 740.5,334.0 L 740.5,333.0 L 740.5,332.0 L 740.5,331.0 L 740.5,330.0 L 740.5,329.0 L 740.5,328.0 L 740.5,327.0 L 740.5,326.0 L 740.5,325.0 L 740.5,324.0 L 740.5,323.0 L 740.5,322.0 L 740.5,321.0 L 740.5,320.0 L 741.0,319.5 L 742.0,319.5 L 742.5,320.0 L 743.0,320.5 L 744.0,320.5 L 744.5,321.0 L 745.0,321.5 L 745.5,322.0 L 746.0,322.5 L 747.0,322.5 L 747.5,323.0 L 748.0,323.5 L 749.0,323.5 L 749.5,324.0 L 750.0,324.5 L 750.5,325.0 L 751.0,325.5 L 752.0,325.5 L 752.5,326.0 L 753.0,326.5 L 754.0,326.5 L 754.5,327.0 L 755.0,327.5 L 755.5,328.0 L 756.0,328.5 L 757.0,328.5 L 757.5,329.0 L 758.0,329.5 L 758.5,330.0 L 759.0,330.5 L 760.0,330.5 L 760.5,331.0 L 761.0,331.5 L 762.0,331.5 L 762.5,332.0 L 763.0,332.5 L 763.5,333.0 L 764.0,333.5 L 765.0,333.5 L 765.5,334.0 L 766.0,334.5 L 767.0,334.5 L 767.5,335.0 L 768.0,335.5 L 768.5,336.0 L 769.0,336.5 L 770.0,336.5 L 770.5,337.0 L 771.0,337.5 L 771.5,338.0 L 772.0,338.5 L 773.0,338.5 L 773.5,339.0 L 774.0,339.5 L 775.0,339.5 L 775.5,340.0 L 776.0,340.5 L 776.5,341.0 L 777.0,341.5 L 778.0,341.5 L 778.5,342.0 L 779.0,342.5 L 780.0,342.5 L 780.5,343.0 L 781.0,343.5 L 781.5,344.0 L 782.0,344.5 L 783.0,344.5 L 783.5,345.0 L 784.0,345.5 L 785.0,345.5 L 785.5,346.0 L 786.0,346.5 L 786.5,347.0 L 787.0,347.5 L 788.0,347.5 L 788.5,348.0 L 789.0,348.5 L 789.5,349.0 L 790.0,349.5 L 791.0,349.5 L 791.5,350.0 L 792.0,350.5 L 793.0,350.5 L 793.5,351.0 L 794.0,351.5 L 794.5,352.0 L 795.0,352.5 L 796.0,352.5 L 796.5,353.0 L 797.0,353.5 L 798.0,353.5 L 798.5,354.0 L 799.0,354.5 L 799.5,355.0 L 800.0,355.5 L 801.0,355.5 L 801.5,356.0 L 802.0,356.5 L 803.0,356.5 L 803.5,357.0 L 804.0,357.5 L 804.5,358.0 L 805.0,358.5 L 806.0,358.5 L 806.5,359.0 L 807.0,359.5 L 808.0,359.5 L 808.5,360.0 L 809.0,360.5 L 809.5,361.0 L 810.0,361.5 L 811.0,361.5 L 811.5,362.0 L 812.0,362.5 L 812.5,363.0 L 813.0,363.5 L 814.0,363.5 L 814.5,364.0 L 815.0,364.5 L 816.0,364.5 L 816.5,365.0 L 817.0,365.5 L 817.5,366.0 L 818.0,366.5 L 819.0,366.5 L 819.5,367.0 L 820.0,367.5 L 821.0,367.5 L 821.5,368.0 L 822.0,368.5 L 822.5,369.0 L 823.0,369.5 L 824.0,369.5 L 824.5,370.0 L 825.0,370.5 L 826.0,370.5 L 826.5,371.0 L 827.0,371.5 L 827.5,372.0 L 828.0,372.5 L 829.0,372.5 L 829.5,373.0 L 830.0,373.5 L 831.0,373.5 L 831.5,374.0 L 832.0,374.5 L 832.5,375.0 L 833.0,375.5 L 834.0,375.5 L 834.5,376.0 L 835.0,376.5 L 836.0,376.5 L 836.5,377.0 L 837.0,377.5 L 837.5,378.0 L 838.0,378.5 L 839.0,378.5 L 839.5,379.0 L 840.0,379.5 L 841.0,379.5 L 841.5,380.0 L 842.0,380.5 L 842.5,381.0 L 843.0,381.5 L 844.0,381.5 L 844.5,382.0 L 845.0,382.5 L 846.0,382.5 L 846.5,383.0 L 847.0,383.5 L 847.5,384.0 L 848.0,384.5 L 849.0,384.5 L 849.5,385.0 L 850.0,385.5 L 851.0,385.5 L 851.5,386.0 L 852.0,386.5 L 852.5,387.0 L 853.0,387.5 L 854.0,387.5 L 854.5,388.0 L 855.0,388.5 L 855.5,389.0 L 856.0,389.5 L 857.0,389.5 L 857.5,390.0 L 858.0,390.5 L 859.0,390.5 L 859.5,391.0 L 860.0,391.5 L 861.0,391.5 L 861.5,392.0 L 862.0,392.5 L 862.5,393.0 L 863.0,393.5 L 864.0,393.5 L 864.5,394.0 L 865.0,394.5 L 866.0,394.5 L 866.5,395.0 L 867.0,395.5 L 867.5,396.0 L 868.0,396.5 L 869.0,396.5 L 869.5,397.0 L 870.0,397.5 L 870.5,398.0 L 871.0,398.5 L 872.0,398.5 L 872.5,399.0 L 873.0,399.5 L 874.0,399.5 L 874.5,400.0 L 875.0,400.5 L 875.5,401.0 L 876.0,401.5 L 877.0,401.5 L 877.5,402.0 L 878.0,402.5 L 879.0,402.5 L 879.5,403.0 L 880.0,403.5 L 880.5,404.0 L 881.0,404.5 L 882.0,404.5 L 882.5,405.0 L 883.0,405.5 L 884.0,405.5 L 884.5,406.0 L 885.0,406.5 L 885.5,407.0 L 886.0,407.5 L 887.0,407.5 L 887.5,408.0 L 888.0,408.5 L 889.0,408.5 L 889.5,409.0 L 890.0,409.5 L 890.5,410.0 L 891.0,410.5 L 892.0,410.5 L 892.5,411.0 L 893.0,411.5 L 894.0,411.5 L 894.5,412.0 L 895.0,412.5 L 895.5,413.0 L 896.0,413.5 L 897.0,413.5 L 897.5,414.0 L 898.0,414.5 L 899.0,414.5 L 899.5,415.0 L 900.0,415.5 L 900.5,416.0 L 901.0,416.5 L 902.0,416.5 L 902.5,417.0 L 903.0,417.5 L 904.0,417.5 L 904.5,418.0 L 905.0,418.5 L 905.5,419.0 L 906.0,419.5 L 907.0,419.5 L 907.5,420.0 L 908.0,420.5 L 909.0,420.5 L 909.5,421.0 L 910.0,421.5 L 910.5,422.0 L 911.0,422.5 L 912.0,422.5 L 912.5,423.0 L 913.0,423.5 L 914.0,423.5 L 914.5,424.0 L 915.0,424.5 L 915.5,425.0 L 916.0,425.5 L 917.0,425.5 L 917.5,426.0 L 918.0,426.5 L 919.0,426.5 L 919.5,427.0 L 920.0,427.5 L 920.5,428.0 L 921.0,428.5 L 922.0,428.5 L 922.5,429.0 L 923.0,429.5 L 924.0,429.5 L 924.5,430.0 L 925.0,430.5 L 925.5,431.0 L 926.0,431.5 L 927.0,431.5 L 927.5,432.0 L 928.0,432.5 L 929.0,432.5 L 929.5,433.0 L 930.0,433.5 L 930.5,434.0 L 931.0,434.5 L 932.0,434.5 L 932.5,435.0 L 933.0,435.5 L 934.0,435.5 L 934.5,436.0 L 935.0,436.5 L 935.5,437.0 L 936.0,437.5 L 937.0,437.5 L 937.5,438.0 L 938.0,438.5 L 939.0,438.5 L 939.5,439.0 L 940.0,439.5 L 940.5,440.0 L 941.0,440.5 L 942.0,440.5 L 942.5,441.0 L 943.0,441.5 L 944.0,441.5 L 944.5,442.0 L 945.0,442.5 L 945.5,443.0 L 946.0,443.5 L 947.0,443.5 L 947.5,444.0 L 948.0,444.5 L 949.0,444.5 L 949.5,445.0 L 950.0,445.5 L 950.5,446.0 L 951.0,446.5 L 952.0,446.5 L 952.5,447.0 L 953.0,447.5 L 953.5,448.0 L 954.0,448.5 L 955.0,448.5 L 955.5,449.0 L 956.0,449.5 L 957.0,449.5 L 957.5,450.0 L 958.0,450.5 L 958.5,451.0 L 959.0,451.5 L 960.0,451.5 L 960.5,452.0 L 961.0,452.5 L 962.0,452.5 L 962.5,453.0 L 963.0,453.5 L 963.5,454.0 L 964.0,454.5 L 965.0,454.5 L 965.5,455.0 L 966.0,455.5 L 967.0,455.5 L 967.5,456.0 L 968.0,456.5 L 968.5,457.0 L 969.0,457.5 L 970.0,457.5 L 970.5,458.0 L 971.0,458.5 L 972.0,458.5 L 972.5,459.0 L 973.0,459.5 L 973.5,460.0 L 974.0,460.5 L 975.0,460.5 L 975.5,461.0 L 976.0,461.5 L 976.5,462.0 L 977.0,462.5 L 977.5,463.0 L 978.0,463.5 L 979.0,463.5 L 979.5,464.0 L 980.0,464.5 L 980.5,465.0 L 981.0,465.5 L 981.5,466.0 L 982.0,466.5 L 982.5,467.0 L 983.0,467.5 L 983.5,468.0 L 984.0,468.5 L 984.5,469.0 L 985.0,469.5 L 985.5,470.0 L 986.0,470.5 L 986.5,471.0 L 986.5,472.0 L 987.0,472.5 L 987.5,473.0 L 988.0,473.5 L 988.5,474.0 L 989.0,474.5 L 989.5,475.0 L 989.5,476.0 L 990.0,476.5 L 990.5,477.0 L 991.0,477.5 L 991.5,478.0 L 991.5,479.0 L 992.0,479.5 L 992.5,480.0 L 992.5,481.0 L 993.0,481.5 L 993.5,482.0 L 993.5,483.0 L 994.0,483.5 L 994.5,484.0 L 994.5,485.0 L 995.0,485.5 L 995.5,486.0 L 995.5,487.0 L 996.0,487.5 L 996.5,488.0 L 996.5,489.0 L 996.5,490.0 L 997.0,490.5 L 997.5,491.0 L 997.5,492.0 L 997.5,493.0 L 997.5,494.0 L 998.0,494.5 L 998.5,495.0 L 998.5,496.0 L 998.5,497.0 L 998.5,498.0 L 999.0,498.5 L 999.5,499.0 L 999.5,500.0 L 999.5,501.0 L 999.5,502.0 L 999.5,503.0 L 999.5,504.0 L 999.5,505.0 L 1000.0,505.5 L 1000.5,506.0 L 1000.5,507.0 L 1000.5,508.0 L 1000.5,509.0 L 1000.5,510.0 L 1000.5,511.0 L 1000.5,512.0 L 1000.5,513.0 L 1000.5,514.0 L 1000.5,515.0 L 1000.5,516.0 L 1000.5,517.0 L 1000.5,518.0 L 1000.5,519.0 L 1000.5,520.0 L 1000.5,521.0 L 1000.5,522.0 L 1000.5,523.0 L 1000.5,524.0 L 1000.5,525.0 L 1000.5,526.0 L 1000.5,527.0 L 1000.5,528.0 L 1000.5,529.0 L 1000.5,530.0 L 1000.5,531.0 L 1000.5,532.0 L 1000.5,533.0 L 1000.5,534.0 L 1000.5,535.0 L 1000.5,536.0 L 1000.5,537.0 L 1000.5,538.0 L 1000.5,539.0 L 1000.5,540.0 L 1000.5,541.0 L 1000.5,542.0 L 1000.5,543.0 L 1000.5,544.0 L 1000.5,545.0 L 1000.5,546.0 L 1000.5,547.0 L 1000.5,548.0 L 1000.5,549.0 L 1000.5,550.0 L 1000.5,551.0 L 1000.5,552.0 L 1000.5,553.0 L 1000.5,554.0 L 1000.5,555.0 L 1000.5,556.0 L 1000.5,557.0 L 1000.5,558.0 L 1000.5,559.0 L 1000.5,560.0 L 1000.5,561.0 L 1000.5,562.0 L 1000.5,563.0 L 1000.5,564.0 L 1000.5,565.0 L 1000.5,566.0 L 1000.5,567.0 L 1000.5,568.0 L 1000.5,569.0 L 1000.5,570.0 L 1000.5,571.0 L 1000.5,572.0 L 1000.5,573.0 L 1000.5,574.0 L 1000.5,575.0 L 1000.5,576.0 L 1000.5,577.0 L 1000.5,578.0 L 1000.5,579.0 L 1000.5,580.0 L 1000.5,581.0 L 1000.5,582.0 L 1000.5,583.0 L 1000.5,584.0 L 1000.5,585.0 L 1000.5,586.0 L 1000.5,587.0 L 1000.5,588.0 L 1000.5,589.0 L 1000.5,590.0 L 1000.5,591.0 L 1000.5,592.0 L 1000.5,593.0 L 1000.5,594.0 L 1000.5,595.0 L 1000.5,596.0 L 1000.5,597.0 L 1000.5,598.0 L 1000.5,599.0 L 1000.5,600.0 L 1000.5,601.0 L 1000.5,602.0 L 1000.5,603.0 L 1000.5,604.0 L 1000.5,605.0 L 1000.5,606.0 L 1000.5,607.0 L 1000.5,608.0 L 1000.5,609.0 L 1000.5,610.0 L 1000.5,611.0 L 1000.5,612.0 L 1000.5,613.0 L 1000.5,614.0 L 1000.5,615.0 L 1000.5,616.0 L 1000.5,617.0 L 1000.5,618.0 L 1000.5,619.0 L 1000.5,620.0 L 1000.5,621.0 L 1000.5,622.0 L 1000.5,623.0 L 1000.5,624.0 L 1000.5,625.0 L 1000.5,626.0 L 1000.5,627.0 L 1000.5,628.0 L 1000.5,629.0 L 1000.5,630.0 L 1000.5,631.0 L 1000.5,632.0 L 1000.5,633.0 L 1000.5,634.0 L 1000.5,635.0 L 1000.5,636.0 L 1000.5,637.0 L 1000.5,638.0 L 1000.5,639.0 L 1000.5,640.0 L 1000.5,641.0 L 1000.5,642.0 L 1000.5,643.0 L 1000.5,644.0 L 1000.5,645.0 L 1000.5,646.0 L 1000.5,647.0 L 1000.5,648.0 L 1000.5,649.0 L 1000.5,650.0 L 1000.5,651.0 L 1000.5,652.0 L 1000.5,653.0 L 1000.5,654.0 L 1000.5,655.0 L 1000.5,656.0 L 1000.5,657.0 L 1000.5,658.0 L 1000.5,659.0 L 1000.5,660.0 L 1000.5,661.0 L 1000.5,662.0 L 1000.5,663.0 L 1000.5,664.0 L 1000.5,665.0 L 1000.5,666.0 L 1000.5,667.0 L 1000.5,668.0 L 1000.5,669.0 L 1000.5,670.0 L 1000.5,671.0 L 1000.5,672.0 L 1000.5,673.0 L 1000.5,674.0 L 1000.5,675.0 L 1000.5,676.0 L 1000.5,677.0 L 1000.5,678.0 L 1000.5,679.0 L 1000.5,680.0 L 1000.5,681.0 L 1000.5,682.0 L 1000.5,683.0 L 1000.5,684.0 L 1000.5,685.0 L 1000.5,686.0 L 1000.5,687.0 L 1000.5,688.0 L 1000.5,689.0 L 1000.5,690.0 L 1000.5,691.0 L 1000.5,692.0 L 1000.5,693.0 L 1000.5,694.0 L 1000.5,695.0 L 1000.5,696.0 L 1000.5,697.0 L 1000.5,698.0 L 1000.5,699.0 L 1000.5,700.0 L 1000.5,701.0 L 1000.5,702.0 L 1000.5,703.0 L 1000.5,704.0 L 1000.5,705.0 L 1000.5,706.0 L 1000.5,707.0 L 1000.5,708.0 L 1000.5,709.0 L 1000.5,710.0 L 1000.5,711.0 L 1000.5,712.0 L 1000.5,713.0 L 1000.5,714.0 L 1000.5,715.0 L 1000.5,716.0 L 1000.5,717.0 L 1000.5,718.0 L 1000.5,719.0 L 1000.5,720.0 L 1000.5,721.0 L 1000.5,722.0 L 1000.5,723.0 L 1000.5,724.0 L 1000.5,725.0 L 1000.5,726.0 L 1000.5,727.0 L 1000.5,728.0 L 1000.5,729.0 L 1000.5,730.0 L 1000.5,731.0 L 1000.5,732.0 L 1000.5,733.0 L 1000.5,734.0 L 1000.5,735.0 L 1000.5,736.0 L 1000.5,737.0 L 1000.5,738.0 L 1000.5,739.0 L 1000.5,740.0 L 1000.5,741.0 L 1000.5,742.0 L 1000.5,743.0 L 1000.5,744.0 L 1000.5,745.0 L 1000.5,746.0 L 1000.5,747.0 L 1000.5,748.0 L 1000.5,749.0 L 1000.5,750.0 L 1000.5,751.0 L 1000.5,752.0 L 1000.5,753.0 L 1000.5,754.0 L 1000.5,755.0 L 1000.5,756.0 L 1000.5,757.0 L 1000.5,758.0 L 1000.5,759.0 L 1000.5,760.0 L 1000.5,761.0 L 1000.5,762.0 L 1000.5,763.0 L 1000.5,764.0 L 1000.5,765.0 L 1000.5,766.0 L 1000.5,767.0 L 1000.5,768.0 L 1000.5,769.0 L 1000.5,770.0 L 1000.5,771.0 L 1000.5,772.0 L 1000.5,773.0 L 1000.0,773.5 L 999.5,774.0 L 999.5,775.0 L 999.5,776.0 L 999.5,777.0 L 999.5,778.0 L 999.5,779.0 L 999.5,780.0 L 999.0,780.5 L 998.5,781.0 L 998.5,782.0 L 998.5,783.0 L 998.5,784.0 L 998.0,784.5 L 997.5,785.0 L 997.5,786.0 L 997.5,787.0 L 997.5,788.0 L 997.0,788.5 L 996.5,789.0 L 996.5,790.0 L 996.5,791.0 L 996.0,791.5 L 995.5,792.0 L 995.5,793.0 L 995.0,793.5 L 994.5,794.0 L 994.5,795.0 L 994.5,796.0 L 994.0,796.5 L 993.5,797.0 L 993.5,798.0 L 993.0,798.5 L 992.5,799.0 L 992.5,800.0 L 992.0,800.5 L 991.5,801.0 L 991.5,802.0 L 991.0,802.5 L 990.5,803.0 L 990.0,803.5 L 989.5,804.0 L 989.5,805.0 L 989.0,805.5 L 988.5,806.0 L 988.0,806.5 L 987.5,807.0 L 987.5,808.0 L 987.0,808.5 L 986.5,809.0 L 986.0,809.5 L 985.5,810.0 L 985.0,810.5 L 984.5,811.0 L 984.0,811.5 L 983.5,812.0 L 983.0,812.5 L 982.5,813.0 L 982.0,813.5 L 981.5,814.0 L 981.0,814.5 L 980.5,815.0 L 980.0,815.5 L 979.5,816.0 L 979.0,816.5 L 978.5,817.0 L 978.0,817.5 L 977.5,818.0 L 977.0,818.5 L 976.5,819.0 L 976.0,819.5 L 975.0,819.5 L 974.5,820.0 L 974.0,820.5 L 973.5,821.0 L 973.0,821.5 L 972.5,822.0 L 972.0,822.5 L 971.0,822.5 L 970.5,823.0 L 970.0,823.5 L 969.0,823.5 L 968.5,824.0 L 968.0,824.5 L 967.5,825.0 L 967.0,825.5 L 966.0,825.5 L 965.5,826.0 L 965.0,826.5 L 964.0,826.5 L 963.5,827.0 L 963.0,827.5 L 962.5,828.0 L 962.0,828.5 L 961.0,828.5 L 960.5,829.0 L 960.0,829.5 L 959.0,829.5 L 958.5,830.0 L 958.0,830.5 L 957.5,831.0 L 957.0,831.5 L 956.0,831.5 L 955.5,832.0 L 955.0,832.5 L 954.0,832.5 L 953.5,833.0 L 953.0,833.5 L 952.5,834.0 L 952.0,834.5 L 951.0,834.5 L 950.5,835.0 L 950.0,835.5 L 949.0,835.5 L 948.5,836.0 L 948.0,836.5 L 947.5,837.0 L 947.0,837.5 L 946.0,837.5 L 945.5,838.0 L 945.0,838.5 L 944.0,838.5 L 943.5,839.0 L 943.0,839.5 L 942.5,840.0 L 942.0,840.5 L 941.0,840.5 L 940.5,841.0 L 940.0,841.5 L 939.5,842.0 L 939.0,842.5 L 938.0,842.5 L 937.5,843.0 L 937.0,843.5 L 936.0,843.5 L 935.5,844.0 L 935.0,844.5 L 934.5,845.0 L 934.0,845.5 L 933.0,845.5 L 932.5,846.0 L 932.0,846.5 L 931.0,846.5 L 930.5,847.0 L 930.0,847.5 L 929.5,848.0 L 929.0,848.5 L 928.0,848.5 L 927.5,849.0 L 927.0,849.5 L 926.0,849.5 L 925.5,850.0 L 925.0,850.5 L 924.5,851.0 L 924.0,851.5 L 923.0,851.5 L 922.5,852.0 L 922.0,852.5 L 921.0,852.5 L 920.5,853.0 L 920.0,853.5 L 919.5,854.0 L 919.0,854.5 L 918.0,854.5 L 917.5,855.0 L 917.0,855.5 L 916.0,855.5 L 915.5,856.0 L 915.0,856.5 L 914.5,857.0 L 914.0,857.5 L 913.0,857.5 L 912.5,858.0 L 912.0,858.5 L 911.0,858.5 L 910.5,859.0 L 910.0,859.5 L 909.5,860.0 L 909.0,860.5 L 908.0,860.5 L 907.5,861.0 L 907.0,861.5 L 906.0,861.5 L 905.5,862.0 L 905.0,862.5 L 904.0,862.5 L 903.5,863.0 L 903.0,863.5 L 902.5,864.0 L 902.0,864.5 L 901.0,864.5 L 900.5,865.0 L 900.0,865.5 L 899.0,865.5 L 898.5,866.0 L 898.0,866.5 L 897.5,867.0 L 897.0,867.5 L 896.0,867.5 L 895.5,868.0 L 895.0,868.5 L 894.0,868.5 L 893.5,869.0 L 893.0,869.5 L 892.5,870.0 L 892.0,870.5 L 891.0,870.5 L 890.5,871.0 L 890.0,871.5 L 889.0,871.5 L 888.5,872.0 L 888.0,872.5 L 887.5,873.0 L 887.0,873.5 L 886.0,873.5 L 885.5,874.0 L 885.0,874.5 L 884.0,874.5 L 883.5,875.0 L 883.0,875.5 L 882.5,876.0 L 882.0,876.5 Z" fill="#FF2D20" stroke="none" /><path d="M 641.0,1020.5 L 640.0,1020.5 L 639.5,1020.0 L 639.5,1019.0 L 639.5,1018.0 L 639.5,1017.0 L 639.5,1016.0 L 639.5,1015.0 L 639.5,1014.0 L 639.5,1013.0 L 639.5,1012.0 L 639.5,1011.0 L 639.5,1010.0 L 639.5,1009.0 L 639.5,1008.0 L 639.5,1007.0 L 639.5,1006.0 L 639.5,1005.0 L 639.5,1004.0 L 639.5,1003.0 L 639.5,1002.0 L 639.5,1001.0 L 639.5,1000.0 L 639.5,999.0 L 639.5,998.0 L 639.5,997.0 L 639.5,996.0 L 639.5,995.0 L 639.5,994.0 L 639.5,993.0 L 639.5,992.0 L 639.5,991.0 L 639.5,990.0 L 639.5,989.0 L 639.5,988.0 L 639.5,987.0 L 639.5,986.0 L 639.5,985.0 L 639.5,984.0 L 639.5,983.0 L 639.5,982.0 L 639.5,981.0 L 639.5,980.0 L 639.5,979.0 L 639.5,978.0 L 639.5,977.0 L 639.5,976.0 L 639.5,975.0 L 639.5,974.0 L 639.5,973.0 L 639.5,972.0 L 639.5,971.0 L 639.5,970.0 L 639.5,969.0 L 639.5,968.0 L 639.5,967.0 L 639.5,966.0 L 639.5,965.0 L 639.5,964.0 L 639.5,963.0 L 639.5,962.0 L 639.5,961.0 L 639.5,960.0 L 639.5,959.0 L 639.5,958.0 L 639.5,957.0 L 639.5,956.0 L 639.5,955.0 L 639.5,954.0 L 639.5,953.0 L 639.5,952.0 L 639.5,951.0 L 639.5,950.0 L 639.5,949.0 L 639.5,948.0 L 639.5,947.0 L 639.5,946.0 L 639.5,945.0 L 639.5,944.0 L 639.5,943.0 L 639.5,942.0 L 639.5,941.0 L 639.5,940.0 L 639.5,939.0 L 639.5,938.0 L 639.5,937.0 L 639.5,936.0 L 639.5,935.0 L 639.5,934.0 L 639.5,933.0 L 639.5,932.0 L 639.5,931.0 L 639.5,930.0 L 639.5,929.0 L 639.5,928.0 L 639.5,927.0 L 639.5,926.0 L 639.5,925.0 L 639.5,924.0 L 639.5,923.0 L 639.5,922.0 L 639.5,921.0 L 639.5,920.0 L 639.5,919.0 L 639.5,918.0 L 639.5,917.0 L 639.5,916.0 L 639.5,915.0 L 639.5,914.0 L 639.5,913.0 L 639.5,912.0 L 639.5,911.0 L 639.5,910.0 L 639.5,909.0 L 639.5,908.0 L 639.5,907.0 L 639.5,906.0 L 639.5,905.0 L 639.5,904.0 L 639.5,903.0 L 639.5,902.0 L 639.5,901.0 L 639.5,900.0 L 639.5,899.0 L 639.5,898.0 L 639.5,897.0 L 639.5,896.0 L 639.5,895.0 L 639.5,894.0 L 639.5,893.0 L 639.5,892.0 L 639.5,891.0 L 639.5,890.0 L 639.5,889.0 L 639.5,888.0 L 639.5,887.0 L 639.5,886.0 L 639.5,885.0 L 639.5,884.0 L 639.5,883.0 L 639.5,882.0 L 639.5,881.0 L 639.5,880.0 L 639.5,879.0 L 639.5,878.0 L 639.5,877.0 L 639.5,876.0 L 639.5,875.0 L 639.5,874.0 L 639.5,873.0 L 639.5,872.0 L 639.5,871.0 L 639.5,870.0 L 639.5,869.0 L 639.5,868.0 L 639.5,867.0 L 639.5,866.0 L 639.5,865.0 L 639.5,864.0 L 639.5,863.0 L 639.5,862.0 L 639.5,861.0 L 639.5,860.0 L 639.5,859.0 L 639.5,858.0 L 639.5,857.0 L 639.5,856.0 L 639.5,855.0 L 639.5,854.0 L 639.5,853.0 L 639.5,852.0 L 639.5,851.0 L 639.5,850.0 L 639.5,849.0 L 639.5,848.0 L 639.5,847.0 L 639.5,846.0 L 639.5,845.0 L 639.5,844.0 L 639.5,843.0 L 639.5,842.0 L 639.5,841.0 L 639.5,840.0 L 639.5,839.0 L 639.5,838.0 L 639.5,837.0 L 639.5,836.0 L 639.5,835.0 L 639.5,834.0 L 639.5,833.0 L 640.0,832.5 L 640.5,832.0 L 640.5,831.0 L 641.0,830.5 L 642.0,830.5 L 642.5,830.0 L 643.0,829.5 L 643.5,829.0 L 644.0,828.5 L 645.0,828.5 L 645.5,828.0 L 646.0,827.5 L 647.0,827.5 L 647.5,827.0 L 648.0,826.5 L 648.5,826.0 L 649.0,825.5 L 650.0,825.5 L 650.5,825.0 L 651.0,824.5 L 651.5,824.0 L 652.0,823.5 L 653.0,823.5 L 653.5,823.0 L 654.0,822.5 L 655.0,822.5 L 655.5,822.0 L 656.0,821.5 L 656.5,821.0 L 657.0,820.5 L 658.0,820.5 L 658.5,820.0 L 659.0,819.5 L 660.0,819.5 L 660.5,819.0 L 661.0,818.5 L 662.0,818.5 L 662.5,818.0 L 663.0,817.5 L 663.5,817.0 L 664.0,816.5 L 665.0,816.5 L 665.5,816.0 L 666.0,815.5 L 667.0,815.5 L 667.5,815.0 L 668.0,814.5 L 668.5,814.0 L 669.0,813.5 L 670.0,813.5 L 670.5,813.0 L 671.0,812.5 L 672.0,812.5 L 672.5,812.0 L 673.0,811.5 L 673.5,811.0 L 674.0,810.5 L 675.0,810.5 L 675.5,810.0 L 676.0,809.5 L 677.0,809.5 L 677.5,809.0 L 678.0,808.5 L 678.5,808.0 L 679.0,807.5 L 680.0,807.5 L 680.5,807.0 L 681.0,806.5 L 682.0,806.5 L 682.5,806.0 L 683.0,805.5 L 683.5,805.0 L 684.0,804.5 L 685.0,804.5 L 685.5,804.0 L 686.0,803.5 L 687.0,803.5 L 687.5,803.0 L 688.0,802.5 L 688.5,802.0 L 689.0,801.5 L 690.0,801.5 L 690.5,801.0 L 691.0,800.5 L 691.5,800.0 L 692.0,799.5 L 693.0,799.5 L 693.5,799.0 L 694.0,798.5 L 695.0,798.5 L 695.5,798.0 L 696.0,797.5 L 697.0,797.5 L 697.5,797.0 L 698.0,796.5 L 698.5,796.0 L 699.0,795.5 L 700.0,795.5 L 700.5,795.0 L 701.0,794.5 L 701.5,794.0 L 702.0,793.5 L 703.0,793.5 L 703.5,793.0 L 704.0,792.5 L 705.0,792.5 L 705.5,792.0 L 706.0,791.5 L 706.5,791.0 L 707.0,790.5 L 708.0,790.5 L 708.5,790.0 L 709.0,789.5 L 710.0,789.5 L 710.5,789.0 L 711.0,788.5 L 711.5,788.0 L 712.0,787.5 L 713.0,787.5 L 713.5,787.0 L 714.0,786.5 L 715.0,786.5 L 715.5,786.0 L 716.0,785.5 L 717.0,785.5 L 717.5,785.0 L 718.0,784.5 L 718.5,784.0 L 719.0,783.5 L 720.0,783.5 L 720.5,783.0 L 721.0,782.5 L 721.5,782.0 L 722.0,781.5 L 723.0,781.5 L 723.5,781.0 L 724.0,780.5 L 725.0,780.5 L 725.5,780.0 L 726.0,779.5 L 726.5,779.0 L 727.0,778.5 L 728.0,778.5 L 728.5,778.0 L 729.0,777.5 L 730.0,777.5 L 730.5,777.0 L 731.0,776.5 L 731.5,776.0 L 732.0,775.5 L 733.0,775.5 L 733.5,775.0 L 734.0,774.5 L 735.0,774.5 L 735.5,774.0 L 736.0,773.5 L 736.5,773.0 L 737.0,772.5 L 738.0,772.5 L 738.5,772.0 L 739.0,771.5 L 740.0,771.5 L 740.5,771.0 L 741.0,770.5 L 741.5,770.0 L 742.0,769.5 L 743.0,769.5 L 743.5,769.0 L 744.0,768.5 L 745.0,768.5 L 745.5,768.0 L 746.0,767.5 L 746.5,767.0 L 747.0,766.5 L 748.0,766.5 L 748.5,766.0 L 749.0,765.5 L 750.0,765.5 L 750.5,765.0 L 751.0,764.5 L 751.5,764.0 L 752.0,763.5 L 753.0,763.5 L 753.5,763.0 L 754.0,762.5 L 755.0,762.5 L 755.5,762.0 L 756.0,761.5 L 756.5,761.0 L 757.0,760.5 L 758.0,760.5 L 758.5,760.0 L 759.0,759.5 L 759.5,759.0 L 760.0,758.5 L 761.0,758.5 L 761.5,758.0 L 762.0,757.5 L 763.0,757.5 L 763.5,757.0 L 764.0,756.5 L 765.0,756.5 L 765.5,756.0 L 766.0,755.5 L 766.5,755.0 L 767.0,754.5 L 768.0,754.5 L 768.5,754.0 L 769.0,753.5 L 769.5,753.0 L 770.0,752.5 L 771.0,752.5 L 771.5,752.0 L 772.0,751.5 L 773.0,751.5 L 773.5,751.0 L 774.0,750.5 L 774.5,750.0 L 775.0,749.5 L 776.0,749.5 L 776.5,749.0 L 777.0,748.5 L 778.0,748.5 L 778.5,748.0 L 779.0,747.5 L 780.0,747.5 L 780.5,747.0 L 781.0,746.5 L 781.5,746.0 L 782.0,745.5 L 783.0,745.5 L 783.5,745.0 L 784.0,744.5 L 784.5,744.0 L 785.0,743.5 L 786.0,743.5 L 786.5,743.0 L 787.0,742.5 L 788.0,742.5 L 788.5,742.0 L 789.0,741.5 L 789.5,741.0 L 790.0,740.5 L 791.0,740.5 L 791.5,740.0 L 792.0,739.5 L 793.0,739.5 L 793.5,739.0 L 794.0,738.5 L 794.5,738.0 L 795.0,737.5 L 796.0,737.5 L 796.5,737.0 L 797.0,736.5 L 798.0,736.5 L 798.5,736.0 L 799.0,735.5 L 799.5,735.0 L 800.0,734.5 L 801.0,734.5 L 801.5,734.0 L 802.0,733.5 L 803.0,733.5 L 803.5,733.0 L 804.0,732.5 L 804.5,732.0 L 805.0,731.5 L 806.0,731.5 L 806.5,731.0 L 807.0,730.5 L 808.0,730.5 L 808.5,730.0 L 809.0,729.5 L 809.5,729.0 L 810.0,728.5 L 811.0,728.5 L 811.5,728.0 L 812.0,727.5 L 813.0,727.5 L 813.5,727.0 L 814.0,726.5 L 814.5,726.0 L 815.0,725.5 L 816.0,725.5 L 816.5,725.0 L 817.0,724.5 L 818.0,724.5 L 818.5,724.0 L 819.0,723.5 L 819.5,723.0 L 820.0,722.5 L 821.0,722.5 L 821.5,722.0 L 822.0,721.5 L 823.0,721.5 L 823.5,721.0 L 824.0,720.5 L 824.5,720.0 L 825.0,719.5 L 826.0,719.5 L 826.5,719.0 L 827.0,718.5 L 828.0,718.5 L 828.5,718.0 L 829.0,717.5 L 829.5,717.0 L 830.0,716.5 L 831.0,716.5 L 831.5,716.0 L 832.0,715.5 L 833.0,715.5 L 833.5,715.0 L 834.0,714.5 L 834.5,714.0 L 835.0,713.5 L 836.0,713.5 L 836.5,713.0 L 837.0,712.5 L 838.0,712.5 L 838.5,712.0 L 839.0,711.5 L 839.5,711.0 L 840.0,710.5 L 841.0,710.5 L 841.5,710.0 L 842.0,709.5 L 842.5,709.0 L 843.0,708.5 L 844.0,708.5 L 844.5,708.0 L 845.0,707.5 L 846.0,707.5 L 846.5,707.0 L 847.0,706.5 L 847.5,706.0 L 848.0,705.5 L 849.0,705.5 L 849.5,705.0 L 850.0,704.5 L 851.0,704.5 L 851.5,704.0 L 852.0,703.5 L 853.0,703.5 L 853.5,703.0 L 854.0,702.5 L 854.5,702.0 L 855.0,701.5 L 855.5,702.0 L 855.5,703.0 L 855.5,704.0 L 855.5,705.0 L 855.5,706.0 L 855.5,707.0 L 855.5,708.0 L 855.5,709.0 L 855.5,710.0 L 855.5,711.0 L 855.5,712.0 L 855.5,713.0 L 855.5,714.0 L 855.5,715.0 L 855.5,716.0 L 855.5,717.0 L 855.5,718.0 L 855.5,719.0 L 855.5,720.0 L 855.5,721.0 L 855.5,722.0 L 855.5,723.0 L 855.5,724.0 L 855.5,725.0 L 855.5,726.0 L 855.5,727.0 L 855.5,728.0 L 855.5,729.0 L 855.5,730.0 L 855.5,731.0 L 855.5,732.0 L 855.5,733.0 L 855.5,734.0 L 855.5,735.0 L 855.5,736.0 L 855.5,737.0 L 855.5,738.0 L 855.5,739.0 L 855.5,740.0 L 855.5,741.0 L 855.5,742.0 L 855.5,743.0 L 855.5,744.0 L 855.5,745.0 L 855.5,746.0 L 855.5,747.0 L 855.5,748.0 L 855.5,749.0 L 855.5,750.0 L 855.5,751.0 L 855.5,752.0 L 855.5,753.0 L 855.5,754.0 L 855.5,755.0 L 855.5,756.0 L 855.5,757.0 L 855.5,758.0 L 855.5,759.0 L 855.5,760.0 L 855.5,761.0 L 855.5,762.0 L 855.5,763.0 L 855.5,764.0 L 855.5,765.0 L 855.5,766.0 L 855.5,767.0 L 855.5,768.0 L 855.5,769.0 L 855.5,770.0 L 855.5,771.0 L 855.5,772.0 L 855.5,773.0 L 855.5,774.0 L 855.5,775.0 L 855.5,776.0 L 855.5,777.0 L 855.5,778.0 L 855.5,779.0 L 855.5,780.0 L 855.5,781.0 L 855.5,782.0 L 855.5,783.0 L 855.5,784.0 L 855.5,785.0 L 855.5,786.0 L 855.5,787.0 L 855.5,788.0 L 855.5,789.0 L 855.5,790.0 L 855.5,791.0 L 855.5,792.0 L 855.5,793.0 L 855.5,794.0 L 855.5,795.0 L 855.5,796.0 L 855.5,797.0 L 855.5,798.0 L 855.5,799.0 L 855.5,800.0 L 855.5,801.0 L 855.5,802.0 L 855.5,803.0 L 855.5,804.0 L 855.5,805.0 L 855.5,806.0 L 855.5,807.0 L 855.5,808.0 L 855.5,809.0 L 855.5,810.0 L 855.5,811.0 L 855.5,812.0 L 855.5,813.0 L 855.5,814.0 L 855.5,815.0 L 855.5,816.0 L 855.5,817.0 L 855.5,818.0 L 855.5,819.0 L 855.5,820.0 L 855.5,821.0 L 855.5,822.0 L 855.5,823.0 L 855.5,824.0 L 855.5,825.0 L 855.5,826.0 L 855.5,827.0 L 855.5,828.0 L 855.5,829.0 L 855.5,830.0 L 855.5,831.0 L 855.5,832.0 L 855.5,833.0 L 855.5,834.0 L 855.5,835.0 L 855.5,836.0 L 855.5,837.0 L 855.5,838.0 L 855.5,839.0 L 855.5,840.0 L 855.5,841.0 L 855.5,842.0 L 855.5,843.0 L 855.5,844.0 L 855.5,845.0 L 855.5,846.0 L 855.5,847.0 L 855.5,848.0 L 855.5,849.0 L 855.5,850.0 L 855.5,851.0 L 855.5,852.0 L 855.5,853.0 L 855.5,854.0 L 855.5,855.0 L 855.5,856.0 L 855.5,857.0 L 855.5,858.0 L 855.5,859.0 L 855.5,860.0 L 855.5,861.0 L 855.5,862.0 L 855.5,863.0 L 855.5,864.0 L 855.5,865.0 L 855.5,866.0 L 855.5,867.0 L 855.5,868.0 L 855.5,869.0 L 855.5,870.0 L 855.5,871.0 L 855.5,872.0 L 855.5,873.0 L 855.5,874.0 L 855.5,875.0 L 855.5,876.0 L 855.5,877.0 L 855.5,878.0 L 855.5,879.0 L 855.5,880.0 L 855.5,881.0 L 855.5,882.0 L 855.5,883.0 L 855.5,884.0 L 855.5,885.0 L 855.5,886.0 L 855.5,887.0 L 855.5,888.0 L 855.5,889.0 L 855.5,890.0 L 855.5,891.0 L 855.0,891.5 L 854.5,892.0 L 854.0,892.5 L 853.5,893.0 L 853.0,893.5 L 852.0,893.5 L 851.5,894.0 L 851.0,894.5 L 850.0,894.5 L 849.5,895.0 L 849.0,895.5 L 848.5,896.0 L 848.0,896.5 L 847.0,896.5 L 846.5,897.0 L 846.0,897.5 L 845.0,897.5 L 844.5,898.0 L 844.0,898.5 L 843.5,899.0 L 843.0,899.5 L 842.0,899.5 L 841.5,900.0 L 841.0,900.5 L 840.0,900.5 L 839.5,901.0 L 839.0,901.5 L 838.5,902.0 L 838.0,902.5 L 837.0,902.5 L 836.5,903.0 L 836.0,903.5 L 835.0,903.5 L 834.5,904.0 L 834.0,904.5 L 833.5,905.0 L 833.0,905.5 L 832.0,905.5 L 831.5,906.0 L 831.0,906.5 L 830.0,906.5 L 829.5,907.0 L 829.0,907.5 L 828.5,908.0 L 828.0,908.5 L 827.0,908.5 L 826.5,909.0 L 826.0,909.5 L 825.0,909.5 L 824.5,910.0 L 824.0,910.5 L 823.5,911.0 L 823.0,911.5 L 822.0,911.5 L 821.5,912.0 L 821.0,912.5 L 820.0,912.5 L 819.5,913.0 L 819.0,913.5 L 818.5,914.0 L 818.0,914.5 L 817.0,914.5 L 816.5,915.0 L 816.0,915.5 L 815.0,915.5 L 814.5,916.0 L 814.0,916.5 L 813.5,917.0 L 813.0,917.5 L 812.0,917.5 L 811.5,918.0 L 811.0,918.5 L 810.0,918.5 L 809.5,919.0 L 809.0,919.5 L 808.5,920.0 L 808.0,920.5 L 807.0,920.5 L 806.5,921.0 L 806.0,921.5 L 805.0,921.5 L 804.5,922.0 L 804.0,922.5 L 803.5,923.0 L 803.0,923.5 L 802.0,923.5 L 801.5,924.0 L 801.0,924.5 L 800.0,924.5 L 799.5,925.0 L 799.0,925.5 L 798.5,926.0 L 798.0,926.5 L 797.0,926.5 L 796.5,927.0 L 796.0,927.5 L 795.0,927.5 L 794.5,928.0 L 794.0,928.5 L 793.5,929.0 L 793.0,929.5 L 792.0,929.5 L 791.5,930.0 L 791.0,930.5 L 790.0,930.5 L 789.5,931.0 L 789.0,931.5 L 788.5,932.0 L 788.0,932.5 L 787.0,932.5 L 786.5,933.0 L 786.0,933.5 L 785.0,933.5 L 784.5,934.0 L 784.0,934.5 L 783.5,935.0 L 783.0,935.5 L 782.0,935.5 L 781.5,936.0 L 781.0,936.5 L 780.0,936.5 L 779.5,937.0 L 779.0,937.5 L 778.5,938.0 L 778.0,938.5 L 777.0,938.5 L 776.5,939.0 L 776.0,939.5 L 775.5,940.0 L 775.0,940.5 L 774.0,940.5 L 773.5,941.0 L 773.0,941.5 L 772.0,941.5 L 771.5,942.0 L 771.0,942.5 L 770.5,943.0 L 770.0,943.5 L 769.0,943.5 L 768.5,944.0 L 768.0,944.5 L 767.0,944.5 L 766.5,945.0 L 766.0,945.5 L 765.5,946.0 L 765.0,946.5 L 764.0,946.5 L 763.5,947.0 L 763.0,947.5 L 762.0,947.5 L 761.5,948.0 L 761.0,948.5 L 760.0,948.5 L 759.5,949.0 L 759.0,949.5 L 758.5,950.0 L 758.0,950.5 L 757.0,950.5 L 756.5,951.0 L 756.0,951.5 L 755.0,951.5 L 754.5,952.0 L 754.0,952.5 L 753.5,953.0 L 753.0,953.5 L 752.0,953.5 L 751.5,954.0 L 751.0,954.5 L 750.5,955.0 L 750.0,955.5 L 749.0,955.5 L 748.5,956.0 L 748.0,956.5 L 747.0,956.5 L 746.5,957.0 L 746.0,957.5 L 745.5,958.0 L 745.0,958.5 L 744.0,958.5 L 743.5,959.0 L 743.0,959.5 L 742.0,959.5 L 741.5,960.0 L 741.0,960.5 L 740.5,961.0 L 740.0,961.5 L 739.0,961.5 L 738.5,962.0 L 738.0,962.5 L 737.0,962.5 L 736.5,963.0 L 736.0,963.5 L 735.5,964.0 L 735.0,964.5 L 734.0,964.5 L 733.5,965.0 L 733.0,965.5 L 732.0,965.5 L 731.5,966.0 L 731.0,966.5 L 730.5,967.0 L 730.0,967.5 L 729.0,967.5 L 728.5,968.0 L 728.0,968.5 L 727.0,968.5 L 726.5,969.0 L 726.0,969.5 L 725.5,970.0 L 725.0,970.5 L 724.0,970.5 L 723.5,971.0 L 723.0,971.5 L 722.0,971.5 L 721.5,972.0 L 721.0,972.5 L 720.5,973.0 L 720.0,973.5 L 719.0,973.5 L 718.5,974.0 L 718.0,974.5 L 717.0,974.5 L 716.5,975.0 L 716.0,975.5 L 715.5,976.0 L 715.0,976.5 L 714.0,976.5 L 713.5,977.0 L 713.0,977.5 L 712.0,977.5 L 711.5,978.0 L 711.0,978.5 L 710.5,979.0 L 710.0,979.5 L 709.0,979.5 L 708.5,980.0 L 708.0,980.5 L 707.0,980.5 L 706.5,981.0 L 706.0,981.5 L 705.5,982.0 L 705.0,982.5 L 704.0,982.5 L 703.5,983.0 L 703.0,983.5 L 702.0,983.5 L 701.5,984.0 L 701.0,984.5 L 700.0,984.5 L 699.5,985.0 L 699.0,985.5 L 698.5,986.0 L 698.0,986.5 L 697.0,986.5 L 696.5,987.0 L 696.0,987.5 L 695.5,988.0 L 695.0,988.5 L 694.0,988.5 L 693.5,989.0 L 693.0,989.5 L 692.0,989.5 L 691.5,990.0 L 691.0,990.5 L 690.5,991.0 L 690.0,991.5 L 689.0,991.5 L 688.5,992.0 L 688.0,992.5 L 687.0,992.5 L 686.5,993.0 L 686.0,993.5 L 685.5,994.0 L 685.0,994.5 L 684.0,994.5 L 683.5,995.0 L 683.0,995.5 L 682.0,995.5 L 681.5,996.0 L 681.0,996.5 L 680.5,997.0 L 680.0,997.5 L 679.0,997.5 L 678.5,998.0 L 678.0,998.5 L 677.0,998.5 L 676.5,999.0 L 676.0,999.5 L 675.0,999.5 L 674.5,1000.0 L 674.0,1000.5 L 673.5,1001.0 L 673.0,1001.5 L 672.0,1001.5 L 671.5,1002.0 L 671.0,1002.5 L 670.0,1002.5 L 669.5,1003.0 L 669.0,1003.5 L 668.5,1004.0 L 668.0,1004.5 L 667.0,1004.5 L 666.5,1005.0 L 666.0,1005.5 L 665.0,1005.5 L 664.5,1006.0 L 664.0,1006.5 L 663.5,1007.0 L 663.0,1007.5 L 662.0,1007.5 L 661.5,1008.0 L 661.0,1008.5 L 660.0,1008.5 L 659.5,1009.0 L 659.0,1009.5 L 658.5,1010.0 L 658.0,1010.5 L 657.0,1010.5 L 656.5,1011.0 L 656.0,1011.5 L 655.0,1011.5 L 654.5,1012.0 L 654.0,1012.5 L 653.5,1013.0 L 653.0,1013.5 L 652.0,1013.5 L 651.5,1014.0 L 651.0,1014.5 L 650.5,1015.0 L 650.0,1015.5 L 649.0,1015.5 L 648.5,1016.0 L 648.0,1016.5 L 647.0,1016.5 L 646.5,1017.0 L 646.0,1017.5 L 645.5,1018.0 L 645.0,1018.5 L 644.0,1018.5 L 643.5,1019.0 L 643.0,1019.5 L 642.0,1019.5 L 641.5,1020.0 L 641.0,1020.5 Z" fill="#FF2D20" stroke="none" /><path d="M 615.0,1020.5 L 614.0,1020.5 L 613.5,1020.0 L 613.0,1019.5 L 612.0,1019.5 L 611.5,1019.0 L 611.0,1018.5 L 610.0,1018.5 L 609.5,1018.0 L 609.0,1017.5 L 608.5,1017.0 L 608.0,1016.5 L 607.0,1016.5 L 606.5,1016.0 L 606.0,1015.5 L 605.5,1015.0 L 605.0,1014.5 L 604.0,1014.5 L 603.5,1014.0 L 603.0,1013.5 L 602.0,1013.5 L 601.5,1013.0 L 601.0,1012.5 L 600.5,1012.0 L 600.0,1011.5 L 599.0,1011.5 L 598.5,1011.0 L 598.0,1010.5 L 597.0,1010.5 L 596.5,1010.0 L 596.0,1009.5 L 595.5,1009.0 L 595.0,1008.5 L 594.0,1008.5 L 593.5,1008.0 L 593.0,1007.5 L 592.0,1007.5 L 591.5,1007.0 L 591.0,1006.5 L 590.5,1006.0 L 590.0,1005.5 L 589.0,1005.5 L 588.5,1005.0 L 588.0,1004.5 L 587.0,1004.5 L 586.5,1004.0 L 586.0,1003.5 L 585.0,1003.5 L 584.5,1003.0 L 584.0,1002.5 L 583.5,1002.0 L 583.0,1001.5 L 582.0,1001.5 L 581.5,1001.0 L 581.0,1000.5 L 580.5,1000.0 L 580.0,999.5 L 579.0,999.5 L 578.5,999.0 L 578.0,998.5 L 577.0,998.5 L 576.5,998.0 L 576.0,997.5 L 575.0,997.5 L 574.5,997.0 L 574.0,996.5 L 573.5,996.0 L 573.0,995.5 L 572.0,995.5 L 571.5,995.0 L 571.0,994.5 L 570.0,994.5 L 569.5,994.0 L 569.0,993.5 L 568.5,993.0 L 568.0,992.5 L 567.0,992.5 L 566.5,992.0 L 566.0,991.5 L 565.5,991.0 L 565.0,990.5 L 564.0,990.5 L 563.5,990.0 L 563.0,989.5 L 562.0,989.5 L 561.5,989.0 L 561.0,988.5 L 560.0,988.5 L 559.5,988.0 L 559.0,987.5 L 558.5,987.0 L 558.0,986.5 L 557.0,986.5 L 556.5,986.0 L 556.0,985.5 L 555.0,985.5 L 554.5,985.0 L 554.0,984.5 L 553.5,984.0 L 553.0,983.5 L 552.0,983.5 L 551.5,983.0 L 551.0,982.5 L 550.5,982.0 L 550.0,981.5 L 549.0,981.5 L 548.5,981.0 L 548.0,980.5 L 547.0,980.5 L 546.5,980.0 L 546.0,979.5 L 545.0,979.5 L 544.5,979.0 L 544.0,978.5 L 543.5,978.0 L 543.0,977.5 L 542.0,977.5 L 541.5,977.0 L 541.0,976.5 L 540.0,976.5 L 539.5,976.0 L 539.0,975.5 L 538.5,975.0 L 538.0,974.5 L 537.0,974.5 L 536.5,974.0 L 536.0,973.5 L 535.0,973.5 L 534.5,973.0 L 534.0,972.5 L 533.5,972.0 L 533.0,971.5 L 532.0,971.5 L 531.5,971.0 L 531.0,970.5 L 530.0,970.5 L 529.5,970.0 L 529.0,969.5 L 528.5,969.0 L 528.0,968.5 L 527.0,968.5 L 526.5,968.0 L 526.0,967.5 L 525.5,967.0 L 525.0,966.5 L 524.0,966.5 L 523.5,966.0 L 523.0,965.5 L 522.0,965.5 L 521.5,965.0 L 521.0,964.5 L 520.5,964.0 L 520.0,963.5 L 519.0,963.5 L 518.5,963.0 L 518.0,962.5 L 517.0,962.5 L 516.5,962.0 L 516.0,961.5 L 515.5,961.0 L 515.0,960.5 L 514.0,960.5 L 513.5,960.0 L 513.0,959.5 L 512.0,959.5 L 511.5,959.0 L 511.0,958.5 L 510.0,958.5 L 509.5,958.0 L 509.0,957.5 L 508.5,957.0 L 508.0,956.5 L 507.0,956.5 L 506.5,956.0 L 506.0,955.5 L 505.5,955.0 L 505.0,954.5 L 504.0,954.5 L 503.5,954.0 L 503.0,953.5 L 502.0,953.5 L 501.5,953.0 L 501.0,952.5 L 500.5,952.0 L 500.0,951.5 L 499.0,951.5 L 498.5,951.0 L 498.0,950.5 L 497.0,950.5 L 496.5,950.0 L 496.0,949.5 L 495.5,949.0 L 495.0,948.5 L 494.0,948.5 L 493.5,948.0 L 493.0,947.5 L 492.0,947.5 L 491.5,947.0 L 491.0,946.5 L 490.5,946.0 L 490.0,945.5 L 489.0,945.5 L 488.5,945.0 L 488.0,944.5 L 487.0,944.5 L 486.5,944.0 L 486.0,943.5 L 485.5,943.0 L 485.0,942.5 L 484.0,942.5 L 483.5,942.0 L 483.0,941.5 L 482.0,941.5 L 481.5,941.0 L 481.0,940.5 L 480.5,940.0 L 480.0,939.5 L 479.0,939.5 L 478.5,939.0 L 478.0,938.5 L 477.0,938.5 L 476.5,938.0 L 476.0,937.5 L 475.5,937.0 L 475.0,936.5 L 474.0,936.5 L 473.5,936.0 L 473.0,935.5 L 472.0,935.5 L 471.5,935.0 L 471.0,934.5 L 470.5,934.0 L 470.0,933.5 L 469.0,933.5 L 468.5,933.0 L 468.0,932.5 L 467.0,932.5 L 466.5,932.0 L 466.0,931.5 L 465.5,931.0 L 465.0,930.5 L 464.0,930.5 L 463.5,930.0 L 463.0,929.5 L 462.0,929.5 L 461.5,929.0 L 461.0,928.5 L 460.5,928.0 L 460.0,927.5 L 459.0,927.5 L 458.5,927.0 L 458.0,926.5 L 457.0,926.5 L 456.5,926.0 L 456.0,925.5 L 455.5,925.0 L 455.0,924.5 L 454.0,924.5 L 453.5,924.0 L 453.0,923.5 L 452.0,923.5 L 451.5,923.0 L 451.0,922.5 L 450.5,922.0 L 450.0,921.5 L 449.0,921.5 L 448.5,921.0 L 448.0,920.5 L 447.0,920.5 L 446.5,920.0 L 446.0,919.5 L 445.5,919.0 L 445.0,918.5 L 444.0,918.5 L 443.5,918.0 L 443.0,917.5 L 442.0,917.5 L 441.5,917.0 L 441.0,916.5 L 440.5,916.0 L 440.0,915.5 L 439.0,915.5 L 438.5,915.0 L 438.0,914.5 L 437.0,914.5 L 436.5,914.0 L 436.0,913.5 L 435.5,913.0 L 435.0,912.5 L 434.0,912.5 L 433.5,912.0 L 433.0,911.5 L 432.0,911.5 L 431.5,911.0 L 431.0,910.5 L 430.5,910.0 L 430.0,909.5 L 429.0,909.5 L 428.5,909.0 L 428.0,908.5 L 427.0,908.5 L 426.5,908.0 L 426.0,907.5 L 425.5,907.0 L 425.0,906.5 L 424.0,906.5 L 423.5,906.0 L 423.0,905.5 L 422.0,905.5 L 421.5,905.0 L 421.0,904.5 L 420.5,904.0 L 420.0,903.5 L 419.0,903.5 L 418.5,903.0 L 418.0,902.5 L 417.0,902.5 L 416.5,902.0 L 416.0,901.5 L 415.5,901.0 L 415.0,900.5 L 414.0,900.5 L 413.5,900.0 L 413.0,899.5 L 412.0,899.5 L 411.5,899.0 L 411.0,898.5 L 410.5,898.0 L 410.0,897.5 L 409.0,897.5 L 408.5,897.0 L 408.0,896.5 L 407.0,896.5 L 406.5,896.0 L 406.0,895.5 L 405.0,895.5 L 404.5,895.0 L 404.0,894.5 L 403.5,894.0 L 403.0,893.5 L 402.0,893.5 L 401.5,893.0 L 401.0,892.5 L 400.0,892.5 L 399.5,892.0 L 399.0,891.5 L 398.5,891.0 L 398.5,890.0 L 398.5,889.0 L 398.5,888.0 L 398.5,887.0 L 398.5,886.0 L 398.5,885.0 L 398.5,884.0 L 398.5,883.0 L 398.5,882.0 L 398.5,881.0 L 398.5,880.0 L 398.5,879.0 L 398.5,878.0 L 398.5,877.0 L 398.5,876.0 L 398.5,875.0 L 398.5,874.0 L 398.5,873.0 L 398.5,872.0 L 398.5,871.0 L 398.5,870.0 L 398.5,869.0 L 398.5,868.0 L 398.5,867.0 L 398.5,866.0 L 398.5,865.0 L 398.5,864.0 L 398.5,863.0 L 398.5,862.0 L 398.5,861.0 L 398.5,860.0 L 398.5,859.0 L 398.5,858.0 L 398.5,857.0 L 398.5,856.0 L 398.5,855.0 L 398.5,854.0 L 398.5,853.0 L 398.5,852.0 L 398.5,851.0 L 398.5,850.0 L 398.5,849.0 L 398.5,848.0 L 398.5,847.0 L 398.5,846.0 L 398.5,845.0 L 398.5,844.0 L 398.5,843.0 L 398.5,842.0 L 398.5,841.0 L 398.5,840.0 L 398.5,839.0 L 398.5,838.0 L 398.5,837.0 L 398.5,836.0 L 398.5,835.0 L 398.5,834.0 L 398.5,833.0 L 398.5,832.0 L 398.5,831.0 L 398.5,830.0 L 398.5,829.0 L 398.5,828.0 L 398.5,827.0 L 398.5,826.0 L 398.5,825.0 L 398.5,824.0 L 398.5,823.0 L 398.5,822.0 L 398.5,821.0 L 398.5,820.0 L 398.5,819.0 L 398.5,818.0 L 398.5,817.0 L 398.5,816.0 L 398.5,815.0 L 398.5,814.0 L 398.5,813.0 L 398.5,812.0 L 398.5,811.0 L 398.5,810.0 L 398.5,809.0 L 398.5,808.0 L 398.5,807.0 L 398.5,806.0 L 398.5,805.0 L 398.5,804.0 L 398.5,803.0 L 398.5,802.0 L 398.5,801.0 L 398.5,800.0 L 398.5,799.0 L 398.5,798.0 L 398.5,797.0 L 398.5,796.0 L 398.5,795.0 L 398.5,794.0 L 398.5,793.0 L 398.5,792.0 L 398.5,791.0 L 398.5,790.0 L 398.5,789.0 L 398.5,788.0 L 398.5,787.0 L 398.5,786.0 L 398.5,785.0 L 398.5,784.0 L 398.5,783.0 L 398.5,782.0 L 398.5,781.0 L 398.5,780.0 L 398.5,779.0 L 398.5,778.0 L 398.5,777.0 L 398.5,776.0 L 398.5,775.0 L 398.5,774.0 L 398.5,773.0 L 398.5,772.0 L 398.5,771.0 L 398.5,770.0 L 398.5,769.0 L 398.5,768.0 L 398.5,767.0 L 398.5,766.0 L 398.5,765.0 L 398.5,764.0 L 398.5,763.0 L 398.5,762.0 L 398.5,761.0 L 398.5,760.0 L 398.5,759.0 L 398.5,758.0 L 398.5,757.0 L 398.5,756.0 L 398.5,755.0 L 398.5,754.0 L 398.5,753.0 L 398.5,752.0 L 398.5,751.0 L 398.5,750.0 L 398.5,749.0 L 398.5,748.0 L 398.5,747.0 L 398.5,746.0 L 398.5,745.0 L 398.5,744.0 L 398.5,743.0 L 398.5,742.0 L 398.5,741.0 L 398.5,740.0 L 398.5,739.0 L 398.5,738.0 L 398.5,737.0 L 398.5,736.0 L 398.5,735.0 L 398.5,734.0 L 398.5,733.0 L 398.5,732.0 L 398.5,731.0 L 398.5,730.0 L 398.5,729.0 L 398.5,728.0 L 398.5,727.0 L 398.5,726.0 L 398.5,725.0 L 398.5,724.0 L 398.5,723.0 L 398.5,722.0 L 398.5,721.0 L 398.5,720.0 L 398.5,719.0 L 398.5,718.0 L 398.5,717.0 L 398.5,716.0 L 398.5,715.0 L 398.5,714.0 L 398.5,713.0 L 398.5,712.0 L 398.5,711.0 L 398.5,710.0 L 398.5,709.0 L 398.5,708.0 L 398.5,707.0 L 398.5,706.0 L 398.5,705.0 L 398.5,704.0 L 398.5,703.0 L 399.0,702.5 L 400.0,702.5 L 401.0,702.5 L 401.5,703.0 L 402.0,703.5 L 402.5,704.0 L 403.0,704.5 L 404.0,704.5 L 404.5,705.0 L 405.0,705.5 L 406.0,705.5 L 406.5,706.0 L 407.0,706.5 L 407.5,707.0 L 408.0,707.5 L 409.0,707.5 L 409.5,708.0 L 410.0,708.5 L 411.0,708.5 L 411.5,709.0 L 412.0,709.5 L 412.5,710.0 L 413.0,710.5 L 414.0,710.5 L 414.5,711.0 L 415.0,711.5 L 416.0,711.5 L 416.5,712.0 L 417.0,712.5 L 417.5,713.0 L 418.0,713.5 L 419.0,713.5 L 419.5,714.0 L 420.0,714.5 L 421.0,714.5 L 421.5,715.0 L 422.0,715.5 L 422.5,716.0 L 423.0,716.5 L 424.0,716.5 L 424.5,717.0 L 425.0,717.5 L 426.0,717.5 L 426.5,718.0 L 427.0,718.5 L 427.5,719.0 L 428.0,719.5 L 429.0,719.5 L 429.5,720.0 L 430.0,720.5 L 431.0,720.5 L 431.5,721.0 L 432.0,721.5 L 433.0,721.5 L 433.5,722.0 L 434.0,722.5 L 434.5,723.0 L 435.0,723.5 L 436.0,723.5 L 436.5,724.0 L 437.0,724.5 L 438.0,724.5 L 438.5,725.0 L 439.0,725.5 L 439.5,726.0 L 440.0,726.5 L 441.0,726.5 L 441.5,727.0 L 442.0,727.5 L 443.0,727.5 L 443.5,728.0 L 444.0,728.5 L 444.5,729.0 L 445.0,729.5 L 446.0,729.5 L 446.5,730.0 L 447.0,730.5 L 448.0,730.5 L 448.5,731.0 L 449.0,731.5 L 449.5,732.0 L 450.0,732.5 L 451.0,732.5 L 451.5,733.0 L 452.0,733.5 L 453.0,733.5 L 453.5,734.0 L 454.0,734.5 L 454.5,735.0 L 455.0,735.5 L 456.0,735.5 L 456.5,736.0 L 457.0,736.5 L 458.0,736.5 L 458.5,737.0 L 459.0,737.5 L 459.5,738.0 L 460.0,738.5 L 461.0,738.5 L 461.5,739.0 L 462.0,739.5 L 463.0,739.5 L 463.5,740.0 L 464.0,740.5 L 464.5,741.0 L 465.0,741.5 L 466.0,741.5 L 466.5,742.0 L 467.0,742.5 L 468.0,742.5 L 468.5,743.0 L 469.0,743.5 L 469.5,744.0 L 470.0,744.5 L 471.0,744.5 L 471.5,745.0 L 472.0,745.5 L 473.0,745.5 L 473.5,746.0 L 474.0,746.5 L 474.5,747.0 L 475.0,747.5 L 476.0,747.5 L 476.5,748.0 L 477.0,748.5 L 478.0,748.5 L 478.5,749.0 L 479.0,749.5 L 479.5,750.0 L 480.0,750.5 L 481.0,750.5 L 481.5,751.0 L 482.0,751.5 L 483.0,751.5 L 483.5,752.0 L 484.0,752.5 L 484.5,753.0 L 485.0,753.5 L 486.0,753.5 L 486.5,754.0 L 487.0,754.5 L 488.0,754.5 L 488.5,755.0 L 489.0,755.5 L 489.5,756.0 L 490.0,756.5 L 491.0,756.5 L 491.5,757.0 L 492.0,757.5 L 493.0,757.5 L 493.5,758.0 L 494.0,758.5 L 494.5,759.0 L 495.0,759.5 L 496.0,759.5 L 496.5,760.0 L 497.0,760.5 L 498.0,760.5 L 498.5,761.0 L 499.0,761.5 L 499.5,762.0 L 500.0,762.5 L 501.0,762.5 L 501.5,763.0 L 502.0,763.5 L 503.0,763.5 L 503.5,764.0 L 504.0,764.5 L 504.5,765.0 L 505.0,765.5 L 506.0,765.5 L 506.5,766.0 L 507.0,766.5 L 508.0,766.5 L 508.5,767.0 L 509.0,767.5 L 509.5,768.0 L 510.0,768.5 L 511.0,768.5 L 511.5,769.0 L 512.0,769.5 L 513.0,769.5 L 513.5,770.0 L 514.0,770.5 L 514.5,771.0 L 515.0,771.5 L 516.0,771.5 L 516.5,772.0 L 517.0,772.5 L 518.0,772.5 L 518.5,773.0 L 519.0,773.5 L 519.5,774.0 L 520.0,774.5 L 521.0,774.5 L 521.5,775.0 L 522.0,775.5 L 523.0,775.5 L 523.5,776.0 L 524.0,776.5 L 524.5,777.0 L 525.0,777.5 L 526.0,777.5 L 526.5,778.0 L 527.0,778.5 L 528.0,778.5 L 528.5,779.0 L 529.0,779.5 L 529.5,780.0 L 530.0,780.5 L 531.0,780.5 L 531.5,781.0 L 532.0,781.5 L 533.0,781.5 L 533.5,782.0 L 534.0,782.5 L 534.5,783.0 L 535.0,783.5 L 536.0,783.5 L 536.5,784.0 L 537.0,784.5 L 538.0,784.5 L 538.5,785.0 L 539.0,785.5 L 539.5,786.0 L 540.0,786.5 L 541.0,786.5 L 541.5,787.0 L 542.0,787.5 L 542.5,788.0 L 543.0,788.5 L 544.0,788.5 L 544.5,789.0 L 545.0,789.5 L 546.0,789.5 L 546.5,790.0 L 547.0,790.5 L 548.0,790.5 L 548.5,791.0 L 549.0,791.5 L 549.5,792.0 L 550.0,792.5 L 551.0,792.5 L 551.5,793.0 L 552.0,793.5 L 553.0,793.5 L 553.5,794.0 L 554.0,794.5 L 554.5,795.0 L 555.0,795.5 L 556.0,795.5 L 556.5,796.0 L 557.0,796.5 L 558.0,796.5 L 558.5,797.0 L 559.0,797.5 L 559.5,798.0 L 560.0,798.5 L 561.0,798.5 L 561.5,799.0 L 562.0,799.5 L 562.5,800.0 L 563.0,800.5 L 564.0,800.5 L 564.5,801.0 L 565.0,801.5 L 566.0,801.5 L 566.5,802.0 L 567.0,802.5 L 567.5,803.0 L 568.0,803.5 L 569.0,803.5 L 569.5,804.0 L 570.0,804.5 L 571.0,804.5 L 571.5,805.0 L 572.0,805.5 L 572.5,806.0 L 573.0,806.5 L 574.0,806.5 L 574.5,807.0 L 575.0,807.5 L 576.0,807.5 L 576.5,808.0 L 577.0,808.5 L 578.0,808.5 L 578.5,809.0 L 579.0,809.5 L 579.5,810.0 L 580.0,810.5 L 581.0,810.5 L 581.5,811.0 L 582.0,811.5 L 582.5,812.0 L 583.0,812.5 L 584.0,812.5 L 584.5,813.0 L 585.0,813.5 L 586.0,813.5 L 586.5,814.0 L 587.0,814.5 L 587.5,815.0 L 588.0,815.5 L 589.0,815.5 L 589.5,816.0 L 590.0,816.5 L 591.0,816.5 L 591.5,817.0 L 592.0,817.5 L 592.5,818.0 L 593.0,818.5 L 594.0,818.5 L 594.5,819.0 L 595.0,819.5 L 596.0,819.5 L 596.5,820.0 L 597.0,820.5 L 597.5,821.0 L 598.0,821.5 L 599.0,821.5 L 599.5,822.0 L 600.0,822.5 L 601.0,822.5 L 601.5,823.0 L 602.0,823.5 L 602.5,824.0 L 603.0,824.5 L 604.0,824.5 L 604.5,825.0 L 605.0,825.5 L 606.0,825.5 L 606.5,826.0 L 607.0,826.5 L 607.5,827.0 L 608.0,827.5 L 609.0,827.5 L 609.5,828.0 L 610.0,828.5 L 611.0,828.5 L 611.5,829.0 L 612.0,829.5 L 612.5,830.0 L 613.0,830.5 L 614.0,830.5 L 614.5,831.0 L 614.5,832.0 L 615.0,832.5 L 615.5,833.0 L 615.5,834.0 L 615.5,835.0 L 615.5,836.0 L 615.5,837.0 L 615.5,838.0 L 615.5,839.0 L 615.5,840.0 L 615.5,841.0 L 615.5,842.0 L 615.5,843.0 L 615.5,844.0 L 615.5,845.0 L 615.5,846.0 L 615.5,847.0 L 615.5,848.0 L 615.5,849.0 L 615.5,850.0 L 615.5,851.0 L 615.5,852.0 L 615.5,853.0 L 615.5,854.0 L 615.5,855.0 L 615.5,856.0 L 615.5,857.0 L 615.5,858.0 L 615.5,859.0 L 615.5,860.0 L 615.5,861.0 L 615.5,862.0 L 615.5,863.0 L 615.5,864.0 L 615.5,865.0 L 615.5,866.0 L 615.5,867.0 L 615.5,868.0 L 615.5,869.0 L 615.5,870.0 L 615.5,871.0 L 615.5,872.0 L 615.5,873.0 L 615.5,874.0 L 615.5,875.0 L 615.5,876.0 L 615.5,877.0 L 615.5,878.0 L 615.5,879.0 L 615.5,880.0 L 615.5,881.0 L 615.5,882.0 L 615.5,883.0 L 615.5,884.0 L 615.5,885.0 L 615.5,886.0 L 615.5,887.0 L 615.5,888.0 L 615.5,889.0 L 615.5,890.0 L 615.5,891.0 L 615.5,892.0 L 615.5,893.0 L 615.5,894.0 L 615.5,895.0 L 615.5,896.0 L 615.5,897.0 L 615.5,898.0 L 615.5,899.0 L 615.5,900.0 L 615.5,901.0 L 615.5,902.0 L 615.5,903.0 L 615.5,904.0 L 615.5,905.0 L 615.5,906.0 L 615.5,907.0 L 615.5,908.0 L 615.5,909.0 L 615.5,910.0 L 615.5,911.0 L 615.5,912.0 L 615.5,913.0 L 615.5,914.0 L 615.5,915.0 L 615.5,916.0 L 615.5,917.0 L 615.5,918.0 L 615.5,919.0 L 615.5,920.0 L 615.5,921.0 L 615.5,922.0 L 615.5,923.0 L 615.5,924.0 L 615.5,925.0 L 615.5,926.0 L 615.5,927.0 L 615.5,928.0 L 615.5,929.0 L 615.5,930.0 L 615.5,931.0 L 615.5,932.0 L 615.5,933.0 L 615.5,934.0 L 615.5,935.0 L 615.5,936.0 L 615.5,937.0 L 615.5,938.0 L 615.5,939.0 L 615.5,940.0 L 615.5,941.0 L 615.5,942.0 L 615.5,943.0 L 615.5,944.0 L 615.5,945.0 L 615.5,946.0 L 615.5,947.0 L 615.5,948.0 L 615.5,949.0 L 615.5,950.0 L 615.5,951.0 L 615.5,952.0 L 615.5,953.0 L 615.5,954.0 L 615.5,955.0 L 615.5,956.0 L 615.5,957.0 L 615.5,958.0 L 615.5,959.0 L 615.5,960.0 L 615.5,961.0 L 615.5,962.0 L 615.5,963.0 L 615.5,964.0 L 615.5,965.0 L 615.5,966.0 L 615.5,967.0 L 615.5,968.0 L 615.5,969.0 L 615.5,970.0 L 615.5,971.0 L 615.5,972.0 L 615.5,973.0 L 615.5,974.0 L 615.5,975.0 L 615.5,976.0 L 615.5,977.0 L 615.5,978.0 L 615.5,979.0 L 615.5,980.0 L 615.5,981.0 L 615.5,982.0 L 615.5,983.0 L 615.5,984.0 L 615.5,985.0 L 615.5,986.0 L 615.5,987.0 L 615.5,988.0 L 615.5,989.0 L 615.5,990.0 L 615.5,991.0 L 615.5,992.0 L 615.5,993.0 L 615.5,994.0 L 615.5,995.0 L 615.5,996.0 L 615.5,997.0 L 615.5,998.0 L 615.5,999.0 L 615.5,1000.0 L 615.5,1001.0 L 615.5,1002.0 L 615.5,1003.0 L 615.5,1004.0 L 615.5,1005.0 L 615.5,1006.0 L 615.5,1007.0 L 615.5,1008.0 L 615.5,1009.0 L 615.5,1010.0 L 615.5,1011.0 L 615.5,1012.0 L 615.5,1013.0 L 615.5,1014.0 L 615.5,1015.0 L 615.5,1016.0 L 615.5,1017.0 L 615.5,1018.0 L 615.5,1019.0 L 615.5,1020.0 L 615.0,1020.5 Z" fill="#FF2D20" stroke="none" /></svg>